<?xml version="1.0" standalone="no"?>
<!DOCTYPE svg PUBLIC "-//W3C//DTD SVG 20010904//EN"
 "http://www.w3.org/TR/2001/REC-SVG-20010904/DTD/svg10.dtd">
<svg version="1.0" xmlns="http://www.w3.org/2000/svg"
 width="512.000000pt" height="512.000000pt" viewBox="0 0 512.000000 512.000000"
 preserveAspectRatio="xMidYMid meet">
<metadata>
Created by potrace 1.14, written by Peter Selinger 2001-2017
</metadata>
<g transform="translate(0.000000,512.000000) scale(0.100000,-0.100000)"
fill="#000000" stroke="none">
<path d="M2525 4978 c4 -18 2 -28 -5 -28 -6 0 -9 -4 -5 -9 3 -5 0 -13 -6 -17
-8 -4 -9 -3 -5 4 4 7 4 12 -1 12 -9 0 -219 -168 -318 -255 -86 -76 -289 -259
-335 -302 l-35 -33 -215 -1 c-118 -1 -237 -3 -265 -5 -27 -1 -173 -5 -324 -8
-251 -6 -292 -9 -280 -20 2 -2 188 -7 414 -10 226 -4 454 -8 508 -9 53 -1 97
-4 97 -7 0 -4 -21 -25 -47 -47 -27 -23 -88 -80 -138 -128 -85 -82 -230 -216
-299 -278 -17 -16 -81 -77 -141 -135 -61 -59 -129 -122 -150 -141 -22 -18 -82
-74 -133 -124 l-92 -91 0 75 c-1 431 -19 901 -36 918 -2 3 -9 0 -15 -6 -18
-18 -25 -170 -28 -633 -1 -239 -6 -437 -11 -440 -35 -22 -618 -588 -632 -614
-8 -15 -7 -22 6 -32 11 -8 13 -14 7 -19 -24 -14 32 -79 328 -376 l308 -309 6
-585 c3 -321 8 -589 12 -595 5 -8 11 -8 19 -1 8 7 71 11 157 10 79 0 338 3
575 6 l431 7 199 -194 c224 -220 321 -309 411 -378 34 -26 60 -50 56 -54 -3
-3 3 -6 15 -6 38 0 114 69 402 361 l285 290 145 1 c80 0 168 2 195 4 28 2 158
5 290 8 132 3 258 5 280 6 89 4 87 -3 -15 -35 -187 -61 -244 -85 -263 -111
-18 -24 -18 -25 18 -74 l36 -49 -23 -14 c-141 -88 -225 -148 -237 -170 -12
-23 -11 -29 9 -62 14 -22 40 -45 70 -59 l49 -24 73 60 c40 33 95 76 121 95 45
33 50 35 75 22 15 -8 32 -20 37 -27 14 -18 18 -12 152 193 150 232 160 253
168 350 10 136 15 602 5 580 -6 -15 -9 -6 -9 33 -1 28 4 52 9 52 6 0 10 5 10
11 0 5 -4 7 -10 4 -5 -3 -10 -1 -10 4 0 6 5 11 10 11 6 0 10 71 10 193 l0 192
183 186 c263 268 361 376 369 405 6 22 2 31 -18 46 -13 11 -22 24 -19 29 3 5
1 17 -4 28 -8 14 -8 20 1 23 15 5 -68 97 -309 337 l-194 194 2 386 c1 212 2
468 2 569 1 150 -2 185 -13 192 -9 6 -253 7 -595 3 l-580 -6 -255 255 c-217
216 -404 386 -428 389 -58 7 -63 5 -57 -23z m362 -409 c183 -185 184 -185 147
-184 -31 2 -35 0 -21 -10 14 -10 12 -12 -16 -12 -346 -8 -927 -9 -925 -2 2 4
68 75 148 156 134 137 258 271 325 351 l28 34 66 -74 c35 -40 147 -157 248
-259z m510 -263 c-4 -11 1 -14 19 -12 13 2 27 6 31 9 10 11 25 8 18 -3 -3 -5
1 -10 9 -10 9 0 16 5 16 11 0 8 4 8 13 1 6 -5 28 -10 47 -10 19 0 206 0 415
-1 l380 -1 4 -495 4 -496 -334 333 c-323 322 -595 584 -652 628 -27 21 -28 46
-2 36 7 -2 16 2 19 10 3 8 8 14 12 14 3 0 4 -6 1 -14z m-879 -26 c-3 -16 0
-30 5 -30 6 0 7 -3 4 -6 -4 -4 -13 -1 -21 5 -8 7 -39 15 -68 18 -76 8 -92 20
-31 24 28 2 49 1 46 -3 -2 -5 5 -8 16 -8 12 0 21 5 21 11 0 5 5 7 10 4 6 -3
10 -1 10 4 0 6 3 11 6 11 4 0 4 -13 2 -30z m198 10 c30 0 43 -4 39 -11 -4 -6
-13 -8 -21 -5 -8 3 -11 0 -7 -10 8 -21 -18 -17 -44 8 -13 12 -23 16 -23 10 0
-7 -12 -11 -28 -10 -15 1 -33 -1 -40 -6 -8 -5 -10 -2 -5 9 4 12 14 16 34 13
19 -3 30 1 35 11 4 11 8 12 11 4 3 -8 23 -13 49 -13z m-542 -11 c-2 -4 -13 -6
-24 -4 -11 2 -22 -1 -26 -6 -3 -6 -19 -7 -35 -4 -21 5 -29 3 -29 -7 0 -8 -3
-9 -8 -3 -4 6 -16 11 -27 10 -14 0 -19 -6 -18 -20 1 -11 0 -14 -3 -7 -3 6 -12
12 -20 12 -16 0 -18 12 -4 26 12 12 202 15 194 3z m179 -4 c6 -14 -35 -14 -45
0 -5 6 -15 6 -28 -3 -14 -9 -26 -9 -39 -3 -10 6 -21 7 -25 4 -3 -3 -6 -1 -6 5
0 15 137 13 143 -3z m203 -1 c-18 -17 -26 -18 -26 -1 0 7 9 13 20 14 18 2 18
0 6 -13z m615 -1 c13 -17 13 -17 -6 -3 -11 8 -22 16 -24 17 -2 2 0 3 6 3 6 0
17 -8 24 -17z m74 -153 c-3 -5 -10 -10 -16 -10 -5 0 -9 5 -9 10 0 6 7 10 16
10 8 0 12 -4 9 -10z m61 3 c-10 -11 -37 -12 -30 -2 3 5 12 9 21 9 9 0 13 -3 9
-7z m-966 -181 c0 -13 -12 -22 -22 -16 -10 6 -1 24 13 24 5 0 9 -4 9 -8z m654
-30 c3 -5 -1 -9 -9 -9 -8 0 -12 4 -9 9 3 4 7 8 9 8 2 0 6 -4 9 -8z m1433 -94
c-2 -18 -4 -4 -4 32 0 36 2 50 4 33 2 -18 2 -48 0 -65z m-2777 42 c0 -5 -4
-10 -10 -10 -5 0 -10 5 -10 10 0 6 5 10 10 10 6 0 10 -4 10 -10z m1410 -14 c0
-2 -7 -7 -16 -10 -8 -3 -12 -2 -9 4 6 10 25 14 25 6z m51 -23 c13 -16 12 -17
-3 -4 -17 13 -22 21 -14 21 2 0 10 -8 17 -17z m-566 -3 c3 -5 -1 -10 -10 -10
-9 0 -13 5 -10 10 3 6 8 10 10 10 2 0 7 -4 10 -10z m140 -9 c-3 -6 -14 -10
-23 -10 -15 1 -15 2 1 6 9 2 17 9 17 15 0 6 3 9 6 5 3 -3 3 -10 -1 -16z
m-1058 -27 c-3 -3 -12 -4 -19 -1 -8 3 -5 6 6 6 11 1 17 -2 13 -5z m713 -3 c0
-5 -7 -14 -15 -21 -16 -14 -18 -10 -9 14 6 17 24 22 24 7z m556 -6 c-11 -8
-25 -15 -30 -15 -6 1 0 7 14 15 32 19 40 18 16 0z m271 -1 c-3 -3 -12 -4 -19
-1 -8 3 -5 6 6 6 11 1 17 -2 13 -5z m-224 -23 c4 -17 2 -18 -14 -8 -13 8 -15
13 -6 19 7 4 13 8 13 8 1 0 4 -9 7 -19z m52 -1 c3 -6 -1 -7 -9 -4 -18 7 -21
14 -7 14 6 0 13 -4 16 -10z m-1465 -19 c0 -6 -4 -12 -8 -15 -5 -3 -9 1 -9 9 0
8 4 15 9 15 4 0 8 -4 8 -9z m1216 -82 c87 -45 283 -143 434 -220 151 -76 281
-142 288 -147 10 -7 -29 -26 -130 -66 -78 -32 -162 -68 -184 -81 -23 -14 -44
-21 -48 -18 -3 3 -6 1 -6 -5 0 -6 -7 -9 -15 -6 -8 4 -15 2 -15 -3 0 -5 -10 -9
-22 -10 -12 -1 -35 -12 -51 -24 -16 -11 -36 -23 -45 -24 -10 -2 -17 -4 -17 -5
0 -1 -8 -3 -18 -5 -10 -2 -26 -7 -35 -11 -9 -4 -21 -8 -27 -9 -5 -2 -45 -17
-88 -34 l-78 -31 -72 31 c-40 17 -119 53 -177 79 -58 26 -126 57 -151 68 -98
45 -376 161 -418 175 l-44 14 44 25 c24 14 121 67 214 118 94 51 224 123 290
160 131 74 197 109 206 110 3 0 78 -36 165 -81z m-901 11 c3 -5 1 -10 -4 -10
-6 0 -11 5 -11 10 0 6 2 10 4 10 3 0 8 -4 11 -10z m133 -43 c4 -21 -14 -22
-34 -3 -11 11 -11 16 -1 19 19 8 32 2 35 -16z m1263 -14 c8 -9 9 -14 2 -10 -6
4 -14 1 -16 -5 -3 -7 -6 -3 -6 10 -1 26 2 27 20 5z m-1903 -53 c-7 -11 -16
-20 -20 -20 -5 0 -3 9 4 20 7 11 16 20 20 20 5 0 3 -9 -4 -20z m179 -299 c-1
-16 -5 -17 -19 -10 -23 12 -24 20 -1 12 13 -5 15 -2 10 11 -4 9 -3 15 2 11 6
-3 9 -14 8 -24z m370 7 c18 -7 33 -16 33 -20 0 -5 -17 -1 -37 7 -61 26 -58 35
4 13z m-377 -43 c11 -13 10 -14 -6 -9 -19 7 -19 7 0 -14 13 -16 17 -30 12 -52
-4 -22 -2 -29 6 -24 7 4 8 3 4 -4 -9 -15 -33 -5 -33 13 0 8 4 12 9 9 12 -8 10
24 -4 49 -23 43 -15 65 12 32z m-80 -11 c0 -8 -5 -12 -10 -9 -6 4 -8 11 -5 16
9 14 15 11 15 -7z m2513 1 c-3 -9 -8 -14 -10 -11 -3 3 -2 9 2 15 9 16 15 13 8
-4z m-2543 -10 c11 -13 10 -14 -4 -9 -9 3 -16 10 -16 15 0 13 6 11 20 -6z
m628 6 c9 -5 28 -14 42 -19 21 -9 22 -11 5 -11 -22 0 -98 38 -77 39 7 0 20 -4
30 -9z m1536 -276 c5 -268 10 -357 31 -600 4 -52 13 -126 21 -182 3 -18 2 -33
-3 -34 -34 -3 -74 -16 -178 -60 -292 -124 -608 -276 -600 -289 4 -6 -1 -7 -11
-3 -10 3 -15 2 -12 -3 3 -5 -7 -9 -23 -10 -28 -1 -29 0 -30 50 -1 28 -2 67 -4
86 -1 19 -5 116 -9 215 -14 336 -21 467 -33 540 -3 22 -7 66 -7 98 l-1 59 145
74 c80 41 177 88 215 105 39 18 95 45 126 60 31 16 64 29 73 29 9 0 16 5 16
10 0 6 6 10 14 10 7 0 53 20 102 43 154 75 159 77 161 64 1 -7 4 -124 7 -262z
m-2650 236 c-2 -3 -12 3 -22 13 -16 17 -16 18 5 5 12 -7 20 -15 17 -18z m834
-5 c115 -59 177 -86 193 -86 9 0 36 -11 60 -25 24 -14 51 -27 59 -31 150 -59
188 -78 183 -93 -4 -13 -3 -14 5 -2 9 12 20 10 74 -14 34 -15 104 -45 153 -65
l90 -38 -5 -94 c-7 -126 -6 -473 2 -755 l7 -232 -77 46 c-42 25 -115 66 -162
91 -47 24 -107 56 -135 71 -159 86 -282 150 -370 194 -55 28 -101 51 -102 52
-3 1 -6 97 -18 515 -6 215 -21 434 -31 475 -3 14 -3 25 0 25 4 0 37 -15 74
-34z m-918 -38 c-11 -12 -17 -24 -14 -27 3 -3 10 2 15 12 6 9 15 14 21 11 7
-4 2 -14 -13 -25 -17 -13 -19 -19 -9 -19 13 0 13 -2 1 -9 -10 -6 -20 -4 -30 8
-9 9 -13 12 -8 7 11 -15 8 -26 -7 -26 -8 0 -17 -4 -20 -9 -8 -12 27 -8 36 4 4
6 8 1 8 -10 0 -12 5 -26 12 -33 10 -10 5 -11 -22 -6 l-35 6 33 -25 c18 -14 29
-28 23 -31 -5 -3 -11 -2 -13 4 -2 6 -13 12 -26 15 -23 4 -28 -9 -13 -34 6 -9
6 -22 0 -33 -8 -14 -3 -24 21 -48 23 -22 26 -29 13 -27 -10 1 -23 5 -28 9 -6
4 -10 -7 -10 -27 0 -41 10 -53 24 -27 6 11 7 22 3 26 -3 4 1 4 10 1 14 -6 14
-9 1 -35 -9 -19 -19 -27 -29 -23 -12 4 -13 1 -4 -23 9 -23 9 -27 -1 -17 -7 7
-14 42 -16 78 -3 56 -1 65 14 66 16 1 16 2 1 6 -14 4 -17 20 -17 107 l-1 104
41 36 c45 39 72 49 39 14z m57 7 c0 -8 -4 -12 -9 -9 -5 3 -6 10 -3 15 9 13 12
11 12 -6z m3283 -26 c0 -6 -4 -7 -10 -4 -5 3 -10 11 -10 16 0 6 5 7 10 4 6 -3
10 -11 10 -16z m-190 2 c0 -11 -31 -24 -38 -16 -3 3 0 5 7 5 7 0 9 5 6 10 -3
6 1 10 9 10 9 0 16 -4 16 -9z m-2472 -26 c-3 -3 -9 2 -12 12 -6 14 -5 15 5 6
7 -7 10 -15 7 -18z m-198 11 c0 -3 -4 -8 -10 -11 -5 -3 -10 -1 -10 4 0 6 5 11
10 11 6 0 10 -2 10 -4z m2946 -15 c-4 -5 0 -11 6 -13 7 -3 1 -7 -14 -10 -32
-6 -33 -5 -12 16 17 18 28 21 20 7z m-654 -43 c-8 -8 -9 -4 -5 13 4 13 8 18
11 10 2 -7 -1 -18 -6 -23z m-2752 18 c0 -2 -7 -7 -16 -10 -8 -3 -12 -2 -9 4 6
10 25 14 25 6z m534 -22 c3 -8 2 -12 -4 -9 -6 3 -10 10 -10 16 0 14 7 11 14
-7z m2972 -56 c1 -40 0 -47 -7 -30 -5 13 -13 21 -18 18 -13 -9 -23 26 -11 38
7 7 10 5 10 -6 0 -9 4 -19 9 -23 6 -3 8 4 5 15 -2 11 -6 30 -9 42 -3 16 -2 19
7 10 6 -6 12 -35 14 -64z m-405 45 c12 -16 12 -17 -1 -7 -8 6 -22 14 -30 17
-13 5 -12 6 1 6 9 1 23 -7 30 -16z m364 7 c3 -5 -1 -10 -10 -10 -9 0 -13 5
-10 10 3 6 8 10 10 10 2 0 7 -4 10 -10z m-3408 -19 c0 -11 -5 -18 -9 -15 -4 3
-5 11 -1 19 7 21 12 19 10 -4z m140 3 c-3 -3 -12 -4 -19 -1 -8 3 -5 6 6 6 11
1 17 -2 13 -5z m477 -20 c9 -24 2 -26 -12 -4 -7 11 -8 20 -3 20 5 0 12 -7 15
-16z m2371 -4 c3 -6 -1 -7 -9 -4 -18 7 -21 14 -7 14 6 0 13 -4 16 -10z m-3223
-400 l3 -336 -187 191 -188 190 183 177 c179 175 182 177 184 145 2 -18 4
-183 5 -367z m833 391 c3 -5 0 -13 -6 -17 -7 -4 -9 -3 -5 4 3 5 0 13 -6 15 -9
4 -10 6 -1 6 6 1 14 -3 18 -8z m-605 -11 c0 -5 -5 -10 -11 -10 -5 0 -7 5 -4
10 3 6 8 10 11 10 2 0 4 -4 4 -10z m-105 -28 c-8 -8 -25 10 -19 20 4 6 9 5 15
-3 4 -7 6 -15 4 -17z m79 2 c9 -24 2 -26 -12 -4 -7 11 -8 20 -3 20 5 0 12 -7
15 -16z m654 -9 c1 -14 -3 -25 -9 -25 -8 0 -7 -5 1 -15 10 -12 9 -15 -4 -15
-10 0 -14 5 -11 10 3 6 1 10 -6 10 -7 0 -5 6 6 13 14 11 15 16 5 22 -11 7 -6
15 15 25 0 0 2 -11 3 -25z m2793 1 c14 8 39 -21 39 -46 0 -12 -4 -19 -9 -16
-17 11 -18 -19 -2 -32 13 -10 11 -10 -11 -1 -15 7 -30 18 -33 27 -4 12 -2 12
8 3 11 -8 16 -5 25 14 11 23 9 27 -13 35 -14 5 -25 15 -24 22 0 10 2 10 6 0 2
-6 9 -10 14 -6z m-3104 -43 c-3 -10 -5 -2 -5 17 0 19 2 27 5 18 2 -10 2 -26 0
-35z m2712 21 c-16 -19 -29 -18 -29 4 0 14 2 15 10 2 9 -14 14 -7 11 13 -1 5
3 6 9 2 8 -5 7 -11 -1 -21z m-3131 -4 c-14 -22 -24 -19 -15 5 4 8 11 15 17 15
6 0 6 -7 -2 -20z m3956 -286 c2 -6 -46 -65 -107 -130 -62 -65 -133 -141 -159
-169 l-47 -50 3 53 c1 29 -2 56 -6 58 -5 3 -6 10 -2 15 4 8 9 161 14 504 0 28
9 21 150 -120 82 -82 151 -155 154 -161z m-3326 278 c2 -7 -3 -12 -10 -12 -8
0 -15 7 -15 15 0 18 19 15 25 -3z m2522 -12 c0 -5 -4 -10 -10 -10 -5 0 -10 5
-10 10 0 6 5 10 10 10 6 0 10 -4 10 -10z m-3 -52 c2 -12 1 -19 -2 -16 -3 3 -8
16 -10 28 -2 12 -1 20 2 16 4 -4 8 -16 10 -28z m-2417 12 c0 -5 -5 -10 -11
-10 -5 0 -7 5 -4 10 3 6 8 10 11 10 2 0 4 -4 4 -10z m-666 -36 c3 -8 2 -12 -4
-9 -6 3 -10 10 -10 16 0 14 7 11 14 -7z m176 6 c0 -5 -4 -10 -10 -10 -5 0 -10
5 -10 10 0 6 5 10 10 10 6 0 10 -4 10 -10z m490 -10 c0 -5 -2 -10 -4 -10 -3 0
-8 5 -11 10 -3 6 -1 10 4 10 6 0 11 -4 11 -10z m2829 -34 c-2 -25 -6 -43 -10
-41 -4 3 -5 21 -2 41 4 27 2 34 -8 29 -8 -5 -10 -4 -5 3 15 25 27 10 25 -32z
m-2822 1 c0 -7 -9 -13 -19 -13 -18 0 -18 1 -2 13 10 7 18 13 19 13 1 0 2 -6 2
-13z m2373 -21 c0 -3 -4 -8 -10 -11 -5 -3 -10 -1 -10 4 0 6 5 11 10 11 6 0 10
-2 10 -4z m40 -6 c0 -5 -2 -10 -4 -10 -3 0 -8 5 -11 10 -3 6 -1 10 4 10 6 0
11 -4 11 -10z m-2427 -13 c3 -8 -1 -14 -8 -14 -7 0 -11 6 -8 14 3 7 6 13 8 13
2 0 5 -6 8 -13z m-722 -14 c13 -16 12 -17 -3 -4 -10 7 -18 15 -18 17 0 8 8 3
21 -13z m3174 7 c-4 -6 -1 -17 5 -25 16 -19 3 -20 -15 -1 -10 10 -11 16 -2 25
14 14 20 14 12 1z m-60 -20 c-3 -5 -10 -10 -16 -10 -5 0 -9 5 -9 10 0 6 7 10
16 10 8 0 12 -4 9 -10z m512 -12 c-3 -8 -6 -5 -6 6 -1 11 2 17 5 13 3 -3 4
-12 1 -19z m-3092 2 c3 -5 1 -10 -4 -10 -6 0 -11 5 -11 10 0 6 2 10 4 10 3 0
8 -4 11 -10z m200 -1 c11 -16 1 -19 -13 -3 -7 8 -8 14 -3 14 5 0 13 -5 16 -11z
m2409 -5 c3 -8 2 -12 -4 -9 -6 3 -10 10 -10 16 0 14 7 11 14 -7z m413 -6 c-3
-8 -6 -5 -6 6 -1 11 2 17 5 13 3 -3 4 -12 1 -19z m-3587 2 c0 -5 -2 -10 -4
-10 -3 0 -8 5 -11 10 -3 6 -1 10 4 10 6 0 11 -4 11 -10z m34 2 c3 -5 -1 -9 -9
-9 -8 0 -12 4 -9 9 3 4 7 8 9 8 2 0 6 -4 9 -8z m-25 -36 c9 -11 9 -16 -1 -22
-7 -4 -10 -4 -6 1 4 4 0 14 -10 21 -9 7 -12 14 -6 14 6 0 17 -6 23 -14z m3578
-16 c-1 -11 -4 -20 -8 -20 -4 0 -6 11 -5 24 0 13 4 22 8 20 4 -2 6 -13 5 -24z
m-367 -11 c0 -5 -7 -9 -15 -9 -8 0 -15 7 -15 15 0 9 6 12 15 9 8 -4 15 -10 15
-15z m-80 -9 c0 -5 -2 -10 -4 -10 -3 0 -8 5 -11 10 -3 6 -1 10 4 10 6 0 11 -4
11 -10z m-3100 -21 c0 -12 -37 -12 -44 0 -3 4 -3 11 0 14 8 7 44 -4 44 -14z
m500 2 c0 -5 -9 -11 -20 -14 -22 -6 -28 8 -7 16 19 8 27 8 27 -2z m-537 -31
c3 -11 2 -20 -3 -20 -4 0 -10 9 -13 20 -3 11 -2 20 3 20 4 0 10 -9 13 -20z
m3567 16 c0 -11 -19 -15 -25 -6 -3 5 1 10 9 10 9 0 16 -2 16 -4z m-370 -16 c0
-5 -5 -10 -11 -10 -5 0 -7 5 -4 10 3 6 8 10 11 10 2 0 4 -4 4 -10z m-2565 -20
c3 -5 1 -10 -4 -10 -6 0 -11 5 -11 10 0 6 2 10 4 10 3 0 8 -4 11 -10z m2501
-16 c-3 -9 1 -14 13 -14 28 0 33 -12 10 -28 -11 -8 -18 -20 -15 -27 6 -16 -19
-14 -36 3 -9 9 -7 12 9 12 16 0 20 5 16 20 -3 11 -12 20 -19 20 -12 0 -12 4
-2 19 13 22 33 17 24 -5z m451 -11 c-3 -3 -11 -2 -17 2 -8 5 -7 11 2 22 12 15
13 14 16 -1 2 -10 1 -20 -1 -23z m-3563 -3 c-10 -4 -21 -6 -24 -3 -8 7 24 22
34 16 5 -4 1 -10 -10 -13z m746 -5 c0 -2 -5 -7 -12 -11 -7 -4 -8 -3 -4 4 4 7
1 12 -8 12 -9 0 -16 5 -16 10 0 7 6 7 20 0 11 -6 20 -13 20 -15z m2817 -63
c-1 -40 -6 -59 -14 -59 -15 0 -17 13 -3 22 6 3 10 15 10 25 0 22 -22 39 -28
22 -2 -7 -11 -12 -19 -12 -12 0 -10 5 8 20 13 11 29 24 34 29 6 6 11 10 11 11
1 0 1 -26 1 -58z m-2855 11 c-3 -16 -7 -22 -10 -15 -4 13 4 42 11 42 2 0 2
-12 -1 -27z m2925 -35 c-2 -13 -4 -5 -4 17 -1 22 1 32 4 23 2 -10 2 -28 0 -40z
m-3637 38 c0 -2 -7 -17 -15 -32 -9 -18 -15 -23 -15 -12 0 9 5 20 11 24 8 4 7
9 -2 15 -11 7 -10 9 4 9 9 0 17 -2 17 -4z m495 -6 c-3 -5 -11 -10 -16 -10 -6
0 -7 5 -4 10 3 6 11 10 16 10 6 0 7 -4 4 -10z m255 6 c0 -2 -8 -10 -17 -17
-16 -13 -17 -12 -4 4 13 16 21 21 21 13z m2604 -14 c2 -4 -5 -9 -17 -9 -17 -2
-19 0 -7 7 18 12 18 12 24 2z m-137 -32 c1 -11 -2 -22 -8 -25 -10 -7 -13 28
-2 38 9 9 9 10 10 -13z m168 10 c-3 -5 -12 -10 -18 -10 -7 0 -6 4 3 10 19 12
23 12 15 0z m-3340 -10 c3 -6 -1 -7 -9 -4 -18 7 -21 14 -7 14 6 0 13 -4 16
-10z m3495 1 c0 -6 -5 -13 -11 -16 -6 -4 -8 -14 -4 -24 4 -11 3 -13 -4 -6 -12
12 -3 55 10 55 5 0 9 -4 9 -9z m-40 -15 c0 -23 -16 -27 -17 -5 -1 10 2 19 8
19 5 0 9 -6 9 -14z m-2762 -15 c-9 -15 -9 -26 0 -45 9 -21 9 -24 -3 -19 -21 8
-23 46 -3 71 16 19 20 14 6 -7z m2732 4 c0 -12 -19 -12 -23 0 -4 9 -1 12 9 8
7 -3 14 -7 14 -8z m-3478 -13 c-4 -11 -1 -13 9 -8 9 5 8 3 -2 -6 -9 -7 -14
-20 -11 -28 3 -8 1 -11 -4 -7 -14 13 -12 64 2 64 7 0 10 -7 6 -15z m3439 -29
c-12 -20 -14 -14 -5 12 4 9 9 14 11 11 3 -2 0 -13 -6 -23z m134 -15 c2 -33 1
-34 -17 -19 -19 17 -24 26 -8 16 6 -3 10 -4 10 -1 0 2 3 12 7 22 4 12 3 15 -5
10 -7 -4 -12 -2 -12 4 0 7 5 10 12 8 7 -3 13 -20 13 -40z m-222 7 c4 -8 15
-12 27 -10 11 2 18 0 15 -6 -4 -5 -10 -7 -15 -4 -5 3 -10 -5 -12 -17 -2 -17
-9 -23 -25 -22 -25 1 -29 -6 -12 -23 8 -8 7 -13 -2 -18 -8 -5 -10 -4 -5 4 4 7
-2 14 -15 19 -19 7 -20 10 -6 15 20 7 22 33 5 41 -7 3 -4 4 7 3 14 -1 20 4 19
16 -2 21 12 23 19 2z m165 -8 c6 0 9 -3 6 -6 -3 -3 -7 -4 -8 -1 -2 3 -10 -1
-19 -9 -14 -11 -18 -11 -23 3 -3 9 -11 13 -17 9 -6 -3 -7 -1 -3 6 5 7 16 9 29
5 12 -4 28 -7 35 -7z m-403 -7 c3 -5 1 -10 -4 -10 -6 0 -11 5 -11 10 0 6 2 10
4 10 3 0 8 -4 11 -10z m-3099 -25 c-1 -8 -5 -17 -8 -21 -5 -4 -4 16 1 34 3 9
9 -1 7 -13z m60 -23 c-2 -15 -4 -31 -5 -36 0 -5 -4 -6 -8 -3 -8 9 -13 58 -7
69 10 16 23 -3 20 -30z m3394 19 c0 -6 -5 -13 -12 -17 -6 -4 -8 -3 -4 4 3 5 0
13 -6 15 -8 3 -6 6 5 6 9 1 17 -3 17 -8z m-2715 -11 c-3 -5 -12 -10 -18 -10
-7 0 -6 4 3 10 19 12 23 12 15 0z m2389 2 c3 -5 -1 -9 -9 -9 -8 0 -15 4 -15 9
0 4 4 8 9 8 6 0 12 -4 15 -8z m426 -27 c0 -5 -5 -3 -10 5 -5 8 -10 20 -10 25
0 6 5 3 10 -5 5 -8 10 -19 10 -25z m-2934 -13 c-18 -16 -18 -16 -6 6 6 13 14
21 18 18 3 -4 -2 -14 -12 -24z m2809 18 c3 -5 1 -10 -4 -10 -6 0 -11 5 -11 10
0 6 2 10 4 10 3 0 8 -4 11 -10z m-3443 -14 c-4 -6 -7 -26 -7 -45 l-1 -33 18
22 c10 12 15 26 12 31 -3 5 2 6 10 3 17 -6 23 -44 7 -44 -4 0 -7 -11 -6 -25 2
-13 -4 -30 -13 -37 -13 -11 -14 -11 -7 2 14 22 16 50 5 50 -9 0 -14 -14 -11
-32 2 -17 -18 -7 -24 11 -10 34 -3 108 11 108 7 0 10 -5 6 -11z m3365 -8 c-3
-8 -6 -5 -6 6 -1 11 2 17 5 13 3 -3 4 -12 1 -19z m-162 2 c3 -5 0 -7 -8 -4 -8
3 -17 -2 -21 -11 -3 -9 -11 -13 -17 -9 -9 5 -6 11 6 21 22 16 32 16 40 3z
m305 6 c0 -3 -4 -8 -10 -11 -5 -3 -10 -1 -10 4 0 6 5 11 10 11 6 0 10 -2 10
-4z m50 -16 c0 -5 -7 -7 -15 -4 -8 4 -12 10 -9 15 6 11 24 2 24 -11z m-300
-25 c0 -5 -5 -3 -10 5 -5 8 -10 20 -10 25 0 6 5 3 10 -5 5 -8 10 -19 10 -25z
m-2510 0 c0 -2 -6 -5 -13 -8 -8 -3 -14 1 -14 8 0 7 6 11 14 8 7 -3 13 -6 13
-8z m2720 -5 c0 -5 -2 -10 -4 -10 -3 0 -8 5 -11 10 -3 6 -1 10 4 10 6 0 11 -4
11 -10z m51 -20 c5 0 8 6 7 13 -2 6 3 12 10 12 6 0 12 -4 11 -9 0 -5 4 -12 11
-16 8 -5 3 -17 -15 -39 -31 -36 -49 -33 -35 7 9 24 9 25 -4 9 -12 -16 -14 -16
-20 -2 -3 9 -2 13 3 10 5 -3 12 -1 15 4 4 5 2 12 -4 16 -6 4 -7 12 -3 18 5 8
9 7 11 -5 2 -10 8 -18 13 -18z m-181 4 c0 -8 -19 -13 -24 -6 -3 5 1 9 9 9 8 0
15 -2 15 -3z m-2935 -24 c3 -5 1 -10 -4 -10 -6 0 -11 5 -11 10 0 6 2 10 4 10
3 0 8 -4 11 -10z m-225 -30 c0 -5 -4 -10 -10 -10 -5 0 -10 5 -10 10 0 6 5 10
10 10 6 0 10 -4 10 -10z m287 -26 c-3 -3 -12 -4 -19 -1 -8 3 -5 6 6 6 11 1 17
-2 13 -5z m-417 -24 c0 -5 -2 -10 -4 -10 -3 0 -8 5 -11 10 -3 6 -1 10 4 10 6
0 11 -4 11 -10z m3400 0 c0 -5 -5 -10 -11 -10 -5 0 -7 5 -4 10 3 6 8 10 11 10
2 0 4 -4 4 -10z m-3426 -41 l19 -34 -31 29 c-33 30 -42 51 -20 44 7 -3 22 -20
32 -39z m3427 -2 c-14 -15 -21 -17 -21 -8 0 18 34 51 39 39 2 -6 -6 -20 -18
-31z m-3341 8 c0 -8 -6 -12 -14 -9 -8 3 -12 12 -9 20 6 17 23 9 23 -11z m3104
-3 c3 -5 -1 -9 -9 -9 -8 0 -12 4 -9 9 3 4 7 8 9 8 2 0 6 -4 9 -8z m-2597 -16
c0 -8 -6 -12 -15 -9 -11 5 -11 7 0 14 7 5 13 9 14 9 0 0 1 -6 1 -14z m-482
-34 c-3 -3 -11 0 -18 7 -9 10 -8 11 6 5 10 -3 15 -9 12 -12z m45 14 c0 -2 -8
-10 -17 -17 -16 -13 -17 -12 -4 4 13 16 21 21 21 13z m2965 -26 c3 -5 1 -10
-4 -10 -6 0 -11 5 -11 10 0 6 2 10 4 10 3 0 8 -4 11 -10z m239 -5 c-4 -8 -10
-15 -15 -15 -5 0 -8 -6 -6 -12 1 -7 -9 -14 -23 -15 -14 -1 -19 0 -12 3 10 5
10 9 0 22 -12 15 -11 15 4 4 14 -12 19 -11 30 7 15 24 30 28 22 6z m-3273 -23
c-7 -2 -18 1 -23 6 -8 8 -4 9 13 5 13 -4 18 -8 10 -11z m846 -24 c-3 -8 -6 -5
-6 6 -1 11 2 17 5 13 3 -3 4 -12 1 -19z m63 -32 c13 -21 13 -21 -9 -2 -20 18
-22 18 -34 3 -8 -12 -16 -14 -27 -7 -15 9 -13 11 13 14 6 1 11 9 11 18 -1 13
2 14 16 6 9 -6 23 -20 30 -32z m2255 35 c3 -5 0 -13 -6 -17 -8 -5 -9 -3 -4 6
6 10 4 12 -9 7 -10 -4 -15 -3 -11 3 8 13 22 13 30 1z m-3018 -8 c-4 -3 -2 -12
4 -19 8 -9 5 -15 -10 -24 -17 -9 -21 -8 -21 5 0 8 5 15 10 15 6 0 9 3 9 8 -2
13 1 22 8 22 3 0 3 -3 0 -7z m132 -34 c-11 -11 -23 -18 -27 -15 -3 4 3 13 14
21 28 22 37 18 13 -6z m549 -18 c-14 -5 -31 15 -23 29 5 8 11 6 20 -7 9 -11
10 -19 3 -22z m2387 30 c-9 -8 -36 -10 -30 -2 2 4 11 8 20 8 8 0 13 -3 10 -6z
m-2978 -16 c0 -8 -4 -15 -9 -15 -10 0 -11 14 -1 23 9 10 10 9 10 -8z m726 0
c15 6 51 -24 60 -50 7 -19 6 -19 -7 -2 -8 10 -16 14 -18 10 -3 -4 -4 -3 -2 3
4 17 -31 35 -45 21 -8 -8 -11 -5 -10 14 0 13 3 19 5 12 3 -7 11 -10 17 -8z
m2521 -480 c5 -451 8 -526 21 -563 4 -10 -4 -11 -31 -6 -20 4 -250 8 -513 10
-416 3 -511 5 -511 9 0 1 229 233 510 516 280 283 510 518 510 523 0 5 2 7 4
5 2 -2 7 -224 10 -494z m-3291 438 c-3 -7 7 -18 24 -25 15 -7 33 -20 40 -28 7
-8 13 -11 13 -6 0 5 9 1 19 -8 11 -10 26 -15 33 -11 7 3 5 0 -4 -8 -22 -17
-12 -30 13 -17 12 7 20 6 25 -2 4 -6 3 -8 -4 -4 -14 8 -44 -22 -35 -37 3 -7
-4 -3 -16 8 -13 11 -26 19 -30 17 -3 -1 -6 10 -6 25 -1 18 -6 28 -15 28 -8 1
-14 6 -13 13 2 7 -4 9 -14 5 -12 -5 -14 -3 -8 7 6 10 4 12 -11 6 -10 -4 -15
-4 -12 -1 4 4 -2 22 -13 41 -18 33 -18 34 0 22 11 -6 17 -17 14 -25z m685 21
c-1 -5 -9 -9 -16 -10 -10 -2 -11 1 -1 12 12 14 24 13 17 -2z m2264 -24 c-13
-11 -24 -23 -25 -27 -1 -4 -5 -7 -9 -6 -3 1 -12 -11 -20 -27 -7 -17 -19 -30
-25 -30 -7 0 -12 -3 -10 -8 1 -4 -8 -19 -21 -32 -16 -17 -21 -19 -17 -7 4 10
2 17 -4 17 -6 0 -11 -5 -11 -12 0 -15 -13 -1 -16 17 -2 10 4 12 19 6 27 -10
50 -3 41 11 -4 6 1 17 10 24 10 7 18 16 19 21 1 4 5 7 10 6 4 -2 7 4 7 12 0 8
5 15 11 15 5 0 7 5 4 10 -4 6 -3 10 2 9 21 -4 34 2 27 13 -4 7 -3 8 4 4 7 -4
12 -2 12 5 0 7 3 9 8 5 4 -4 -3 -16 -16 -26z m-2919 5 c-3 -9 -8 -14 -10 -11
-3 3 -2 9 2 15 9 16 15 13 8 -4z m-118 -5 c3 -5 2 -10 -4 -10 -5 0 -13 5 -16
10 -3 6 -2 10 4 10 5 0 13 -4 16 -10z m839 -11 c-29 -12 -36 -10 -22 5 7 7 19
11 27 8 11 -4 10 -7 -5 -13z m126 -12 c12 -4 12 -6 -2 -6 -10 -1 -22 9 -28 22
-9 19 -9 20 2 6 7 -9 20 -18 28 -22z m-770 -396 c195 -190 406 -395 468 -456
l113 -110 -183 -5 c-101 -3 -325 -4 -499 -2 l-315 3 -2 52 c0 28 -3 249 -7
491 l-6 439 38 -33 c21 -18 198 -189 393 -379z m-125 343 c55 -58 78 -84 74
-84 -2 0 -31 28 -64 62 -33 34 -51 55 -40 47 11 -8 24 -19 30 -25z m939 17 c4
-5 -1 -8 -9 -7 -21 3 -31 16 -12 16 9 0 18 -4 21 -9z m41 -9 c-3 -3 -11 0 -18
7 -9 10 -8 11 6 5 10 -3 15 -9 12 -12z m1850 8 c-3 -5 -12 -10 -18 -10 -7 0
-6 4 3 10 19 12 23 12 15 0z m-2770 -10 c4 -6 12 -7 18 -4 9 5 9 4 0 -6 -9
-10 -15 -10 -28 4 -9 9 -12 16 -6 16 5 0 13 -5 16 -10z m990 -30 c3 -6 -1 -7
-9 -4 -18 7 -21 14 -7 14 6 0 13 -4 16 -10z m-834 -27 c13 -16 12 -17 -3 -4
-14 11 -18 11 -18 1 0 -8 -3 -11 -6 -7 -5 5 3 27 10 27 2 0 10 -8 17 -17z m44
8 c3 -5 2 -12 -3 -15 -5 -3 -9 1 -9 9 0 17 3 19 12 6z m619 -7 c3 -8 2 -12 -4
-9 -6 3 -10 10 -10 16 0 14 7 11 14 -7z m211 -14 c-3 -5 1 -10 9 -10 9 0 16
-5 16 -10 0 -7 -6 -7 -19 -1 -10 6 -21 7 -25 4 -3 -3 -6 -1 -6 5 0 5 6 13 13
15 18 8 19 8 12 -3z m-785 -14 c0 -8 -5 -18 -12 -22 -7 -4 -8 -3 -4 4 4 7 2
12 -3 12 -6 0 -11 5 -11 10 0 6 7 10 15 10 8 0 15 -6 15 -14z m610 -11 c-5 -6
-6 -16 -2 -20 4 -5 1 -5 -5 -1 -19 11 -17 47 2 40 11 -5 13 -10 5 -19z m1902
8 c-6 -3 -10 -8 -7 -13 3 -5 -2 -7 -11 -6 -9 1 -20 9 -25 17 -6 13 -2 15 24
11 18 -3 26 -7 19 -9z m-2614 -13 c7 -11 11 -20 9 -20 -2 0 -12 9 -22 20 -10
11 -14 20 -9 20 5 0 15 -9 22 -20z m962 -5 c0 -8 -7 -15 -15 -15 -26 0 -18 20
13 29 1 1 2 -6 2 -14z m900 11 c0 -2 -7 -7 -16 -10 -8 -3 -12 -2 -9 4 6 10 25
14 25 6z m-1797 -22 c-1 -5 4 -15 9 -22 15 -17 -2 -34 -22 -22 -12 8 -11 10 5
10 18 1 17 3 -8 25 -27 24 -27 25 -5 22 13 -2 22 -8 21 -13z m171 5 c-4 -8 1
-9 17 -4 19 5 21 4 9 -4 -13 -10 -13 -12 0 -21 9 -6 10 -10 3 -10 -14 0 -43
27 -43 41 0 5 5 9 11 9 5 0 7 -5 3 -11z m563 -11 c-3 -8 -6 -5 -6 6 -1 11 2
17 5 13 3 -3 4 -12 1 -19z m1747 7 c11 -8 16 -15 12 -15 -5 0 -4 -6 2 -12 13
-16 -6 -36 -31 -32 -20 3 -41 -31 -31 -48 4 -7 3 -8 -4 -4 -7 4 -11 18 -10 31
1 13 6 21 10 19 4 -3 9 0 9 5 1 6 2 15 3 20 0 5 5 13 9 18 5 4 8 4 7 -2 -4
-20 0 -36 9 -31 16 10 7 51 -12 50 -9 -1 -14 2 -11 7 7 12 16 11 38 -6z
m-1505 -9 c18 -6 20 -10 10 -17 -7 -4 -19 -3 -26 2 -7 6 -16 8 -21 5 -5 -3 -9
1 -9 8 0 14 7 15 46 2z m-887 -36 c7 -1 3 -6 -10 -14 -20 -11 -21 -14 -8 -25
20 -17 10 -40 -15 -34 -10 3 -16 9 -14 14 3 4 13 5 23 2 12 -4 10 1 -8 21 -14
15 -20 27 -15 26 6 -1 17 -2 25 -1 11 1 11 4 2 13 -7 7 -12 19 -11 28 0 9 4 6
9 -7 5 -13 15 -23 22 -23z m828 26 c0 -11 -19 -15 -25 -6 -3 5 1 10 9 10 9 0
16 -2 16 -4z m710 -16 c0 -5 -5 -10 -11 -10 -5 0 -7 5 -4 10 3 6 8 10 11 10 2
0 4 -4 4 -10z m-607 -15 c4 -8 3 -16 -1 -19 -4 -3 -9 4 -9 15 -2 23 3 25 10 4z
m1385 -7 c6 -81 4 -90 -17 -111 -15 -15 -20 -17 -16 -6 8 21 -20 32 -35 14 -8
-10 -8 -15 3 -22 11 -6 10 -11 -5 -26 -18 -17 -18 -17 -14 8 3 15 0 25 -7 26
-9 0 -8 2 1 6 6 2 9 10 6 15 -4 7 -2 8 4 4 7 -4 12 -3 12 2 0 15 37 21 49 9 8
-8 11 -8 11 1 0 11 -13 16 -32 13 -4 0 -5 6 -1 14 4 13 8 13 20 3 13 -10 15
-8 13 17 -1 17 -2 33 -1 38 2 12 8 8 9 -5z m-83 -7 c3 -5 2 -12 -3 -15 -5 -3
-9 1 -9 9 0 17 3 19 12 6z m-2290 -11 c3 -5 2 -10 -4 -10 -5 0 -13 5 -16 10
-3 6 -2 10 4 10 5 0 13 -4 16 -10z m610 -19 c-6 -5 -25 10 -25 20 0 5 6 4 14
-3 8 -7 12 -15 11 -17z m435 4 c11 -13 10 -14 -4 -9 -9 3 -16 10 -16 15 0 13
6 11 20 -6z m-950 -39 c-7 -7 -14 -6 -22 3 -11 10 -9 11 7 5 l20 -7 -20 24
-20 24 23 -19 c15 -13 19 -23 12 -30z m565 16 c-3 -3 -11 0 -18 7 -9 10 -8 11
6 5 10 -3 15 -9 12 -12z m43 -7 c-3 -3 -9 2 -12 12 -6 14 -5 15 5 6 7 -7 10
-15 7 -18z m442 15 c0 -5 -2 -10 -4 -10 -3 0 -8 5 -11 10 -3 6 -1 10 4 10 6 0
11 -4 11 -10z m-943 -22 c-1 -15 -3 -16 -17 -3 -9 8 -20 12 -23 8 -4 -3 -7 -2
-7 4 0 6 11 10 24 9 16 -1 24 -7 23 -18z m763 16 c0 -8 -19 -13 -24 -6 -3 5 1
9 9 9 8 0 15 -2 15 -3z m35 -4 c3 -5 1 -10 -4 -10 -6 0 -11 5 -11 10 0 6 2 10
4 10 3 0 8 -4 11 -10z m92 -5 c9 -24 -1 -27 -15 -5 -8 13 -8 20 -2 20 6 0 13
-7 17 -15z m960 -5 c1 -11 -2 -20 -5 -20 -4 0 -8 9 -9 20 -1 11 2 20 5 20 4 0
8 -9 9 -20z m-1275 -29 c-5 -13 -3 -14 10 -3 13 10 17 10 22 -3 3 -8 11 -14
17 -13 6 2 14 -4 16 -12 3 -9 1 -11 -4 -5 -4 6 -20 10 -35 10 -16 -1 -28 3
-28 8 0 4 -4 5 -10 2 -6 -3 -7 1 -4 9 3 9 1 16 -5 16 -6 0 -11 -4 -11 -10 0
-5 -4 -10 -9 -10 -5 0 -8 10 -7 23 1 21 4 22 27 13 19 -6 25 -15 21 -25z m86
19 c10 -17 10 -20 -6 -20 -11 0 -18 8 -19 20 -1 11 1 20 5 20 4 0 13 -9 20
-20z m1307 9 c12 -18 -3 -22 -20 -5 -14 14 -14 16 -1 16 8 0 18 -5 21 -11z
m125 1 c0 -5 -5 -10 -11 -10 -5 0 -7 5 -4 10 3 6 8 10 11 10 2 0 4 -4 4 -10z
m-98 -22 c-6 -6 -8 -17 -5 -24 3 -8 1 -14 -5 -14 -8 0 -9 17 -3 53 0 5 6 5 12
1 7 -4 7 -10 1 -16z m-32 -20 c0 -5 -4 -7 -9 -3 -5 3 -12 1 -16 -5 -12 -19
-26 -11 -15 10 10 19 40 18 40 -2z m75 4 c-3 -3 -11 0 -18 7 -9 10 -8 11 6 5
10 -3 15 -9 12 -12z m-289 -1 c-4 -5 0 -11 6 -14 7 -3 3 -4 -9 -4 -17 1 -19 4
-11 14 12 15 22 18 14 4z m87 -6 c-3 -9 -8 -14 -10 -11 -3 3 -2 9 2 15 9 16
15 13 8 -4z m218 -48 c-8 -8 -14 -7 -23 2 -8 9 -8 11 -2 8 7 -4 15 1 19 11 5
12 9 14 12 4 3 -8 0 -19 -6 -25z m-136 -23 c-17 -18 -31 -18 -16 -1 6 8 8 17
4 21 -4 4 0 4 10 1 14 -6 14 -9 2 -21z m105 12 c0 -2 -7 -9 -15 -16 -13 -11
-14 -10 -9 4 5 14 24 23 24 12z m50 -20 c0 -2 -7 -9 -15 -16 -13 -11 -14 -10
-9 4 5 14 24 23 24 12z m-109 -29 c-7 -7 -14 -8 -21 -1 -6 6 -2 10 12 11 16 2
18 -1 9 -10z m-124 -29 c-3 -8 -6 -5 -6 6 -1 11 2 17 5 13 3 -3 4 -12 1 -19z
m93 -8 c-12 -12 -18 -25 -15 -30 4 -6 0 -10 -7 -10 -10 0 -10 -2 1 -9 7 -5 11
-14 7 -20 -4 -7 -13 -4 -25 7 -17 16 -17 18 3 35 12 10 14 15 6 11 -9 -4 -7 2
5 14 11 11 26 21 33 21 7 1 3 -8 -8 -19z m28 -25 c-3 -3 -9 2 -12 12 -6 14 -5
15 5 6 7 -7 10 -15 7 -18z m30 3 c-2 -6 -15 -18 -29 -26 -21 -12 -22 -12 -6 1
9 8 17 19 17 26 0 6 5 11 11 11 6 0 9 -5 7 -12z m-66 -80 c-14 -15 -22 -18
-22 -9 0 15 32 43 39 35 3 -3 -5 -14 -17 -26z m-157 2 c-3 -5 -12 -10 -18 -10
-7 0 -6 4 3 10 19 12 23 12 15 0z m42 -116 c-3 -3 -12 -4 -19 -1 -8 3 -5 6 6
6 11 1 17 -2 13 -5z m-27 -39 c-7 -8 -18 -15 -24 -15 -6 0 -2 7 8 15 25 19 32
19 16 0z m-360 -53 c0 -15 -11 -21 -27 -15 -12 5 -12 7 -1 14 17 11 28 11 28
1z m-430 -42 c0 -5 -2 -10 -4 -10 -3 0 -8 5 -11 10 -3 6 -1 10 4 10 6 0 11 -4
11 -10z m80 -6 c0 -8 -19 -13 -24 -6 -3 5 1 9 9 9 8 0 15 -2 15 -3z m225 -12
c-3 -3 -11 0 -18 7 -9 10 -8 11 6 5 10 -3 15 -9 12 -12z m-975 -12 c0 -5 -4
-10 -9 -10 -6 0 -13 5 -16 10 -3 6 1 10 9 10 9 0 16 -4 16 -10z m771 -13 c-10
-9 -11 -8 -5 6 3 10 9 15 12 12 3 -3 0 -11 -7 -18z m82 -4 c-7 -2 -19 -2 -25
0 -7 3 -2 5 12 5 14 0 19 -2 13 -5z m87 -3 c0 -5 -2 -10 -4 -10 -3 0 -8 5 -11
10 -3 6 -1 10 4 10 6 0 11 -4 11 -10z m-885 -19 c3 -5 2 -12 -3 -15 -5 -3 -9
1 -9 9 0 17 3 19 12 6z m770 0 c3 -5 2 -12 -3 -15 -5 -3 -9 1 -9 9 0 17 3 19
12 6z m-750 -51 c7 0 15 3 18 8 2 4 2 1 1 -5 -4 -17 15 -17 22 0 7 19 25 17
47 -4 14 -13 15 -19 6 -25 -7 -4 -10 -3 -6 3 4 5 -13 9 -41 7 -47 -1 -73 9
-71 30 0 7 2 6 6 -1 2 -7 11 -13 18 -13z m805 10 c0 -5 -4 -10 -10 -10 -5 0
-10 5 -10 10 0 6 5 10 10 10 6 0 10 -4 10 -10z m-632 -14 c-2 -1 -12 -8 -22
-16 -18 -14 -18 -14 -6 7 8 12 18 19 23 16 4 -3 7 -6 5 -7z m672 2 c0 -4 -4
-8 -9 -8 -6 0 -12 4 -15 8 -3 5 1 9 9 9 8 0 15 -4 15 -9z m140 8 c0 -3 -4 -8
-10 -11 -5 -3 -10 -1 -10 4 0 6 5 11 10 11 6 0 10 -2 10 -4z m-420 -21 c0 -8
-7 -15 -15 -15 -13 0 -14 3 -3 15 16 18 18 18 18 0z m54 0 c-4 -8 -11 -15 -16
-15 -6 0 -5 6 2 15 7 8 14 15 16 15 2 0 1 -7 -2 -15z m41 -5 c3 -5 1 -10 -4
-10 -6 0 -11 5 -11 10 0 6 2 10 4 10 3 0 8 -4 11 -10z m108 -7 c-7 -2 -19 -2
-25 0 -7 3 -2 5 12 5 14 0 19 -2 13 -5z m-1295 -20 c-15 -2 -42 -2 -60 0 -18
2 -6 4 27 4 33 0 48 -2 33 -4z m155 0 c-7 -2 -19 -2 -25 0 -7 3 -2 5 12 5 14
0 19 -2 13 -5z m1460 -55 c13 3 -66 -84 -191 -210 -121 -122 -234 -246 -261
-286 l-48 -70 -65 76 c-86 102 -199 224 -317 347 -141 147 -137 138 -63 133
34 -1 62 -1 62 2 0 8 64 5 79 -4 7 -5 16 -4 20 1 3 6 17 8 31 6 64 -12 710 -1
718 11 3 6 7 6 9 -1 2 -6 14 -8 26 -5z m1293 -23 c-11 -8 -24 -15 -30 -15 -5
0 -6 -3 -3 -7 4 -3 -2 -13 -14 -21 -11 -8 -18 -20 -15 -29 3 -8 2 -12 -3 -9
-8 5 -141 -163 -141 -180 0 -5 -12 -17 -25 -27 -24 -17 -25 -17 -31 8 -7 27
-40 35 -61 14 -10 -10 -23 18 -28 63 -1 10 -8 26 -17 35 -25 29 -29 51 -9 46
20 -5 190 51 306 101 90 39 98 41 71 21z m-390 -296 c3 -6 0 -15 -7 -20 -14
-8 -32 9 -23 23 7 11 22 10 30 -3z m-51 -19 c-3 -5 -1 -10 6 -10 7 0 -7 -17
-31 -37 -65 -57 -93 -73 -109 -64 -11 7 -6 13 17 25 17 9 34 21 38 27 4 8 0 8
-15 0 -36 -20 -23 -4 16 19 24 14 32 16 24 6 -19 -23 -1 -19 29 5 21 17 22 20
5 15 -20 -6 -20 -6 -1 9 23 17 30 19 21 5z"/>
<path d="M3910 2489 c0 -5 5 -7 10 -4 6 3 10 8 10 11 0 2 -4 4 -10 4 -5 0 -10
-5 -10 -11z"/>
<path d="M4317 2174 c-4 -4 -7 -14 -7 -23 0 -11 3 -12 11 -4 6 6 10 16 7 23
-2 6 -7 8 -11 4z"/>
<path d="M1166 1765 c4 -8 11 -15 16 -15 6 0 5 6 -2 15 -7 8 -14 15 -16 15 -2
0 -1 -7 2 -15z"/>
<path d="M1180 1725 c7 -9 15 -13 17 -11 7 7 -7 26 -19 26 -6 0 -6 -6 2 -15z"/>
</g>
</svg>
