<svg xmlns="http://www.w3.org/2000/svg" fill-rule="evenodd" clip-rule="evenodd" image-rendering="optimizeQuality" shape-rendering="geometricPrecision" text-rendering="geometricPrecision" viewBox="150 76.75 1694.67 1888.52"><path fill="#010001" d="M1385 77c27-1 54 1 81 5a484 484 0 0 1 199 99c11 7 24 12 38 15 12-1 25-4 37-9 10-6 19-14 27-22l26-32c4-3 9-3 15-1 12 8 20 18 26 32l8 22c6 40 2 80-13 119l-34 58c-13 14-26 27-41 39l-16 10-51 21c-48 16-96 17-144 2l-25-11a393 393 0 0 1-21 129 339 339 0 0 1 179 267c2 28-2 56-12 84-15 34-40 58-75 71 32 13 50 36 56 71 9 2 17 6 25 11 27 21 43 49 49 84 9 56-4 107-38 152 9 25 17 51 22 78 3 26 4 53 2 80-5 43-22 80-52 110l-13 10-38 16c19 8 32 22 39 43l4 20c30-6 55 2 76 25 11 15 14 31 11 50-3 17-9 33-20 47l13 15c21 27 23 56 7 87a67 67 0 0 1-49 30c-25 4-47-1-67-15a90 90 0 0 1-74 14c-10-3-18-8-25-14-35 17-71 20-108 10-16-7-29-16-41-27-15 13-32 24-51 31-33 8-65 5-95-7l-17-9c-43 31-81 27-115-12-3-5-6-10-7-15-12 4-23 6-35 6-11 0-21-2-30-5a89 89 0 0 1-56 45c-20 3-38 0-55-8l-15-9c-17 7-36 12-54 14-7 31-25 51-55 60-28 6-53 0-75-17a72 72 0 0 1-20-42c-22 0-40-8-55-22a79 79 0 0 1-85 23c-9-3-16-8-22-14-5 4-12 8-18 10-31 9-63 12-94 8-41-10-75-30-103-60a160 160 0 0 1-28-166c10-23 26-42 46-57 24-19 52-33 83-40v-38c-27-21-46-46-57-77-9-28-13-56-13-85 0-30 3-60 7-89l-31-28c-21-22-33-48-37-77-5-57 15-104 59-140 3-1 6-3 7-7l-5-72c-8-89-16-178-22-267l-4-11c-7-10-13-20-18-31-3-12-3-23 2-34a187 187 0 0 1-147-145l-3-29c1-29 6-58 14-85 10-23 22-44 37-62l34-32c29-23 62-36 99-40 81-8 147 19 198 83 26 40 37 84 31 133 15-17 32-30 52-41 33-17 68-32 104-45 23-7 46-12 71-15 22-4 44-5 67-5l50-46 103-81 107-68c36-21 75-38 116-52 45-16 92-23 140-21l12-2ZM496 597l-1 15c1 17 4 34 9 51 10 21 22 40 38 59l-4 16a380 380 0 0 0 2 49c-5 3-9 7-12 12-30 41-38 86-24 136l18 37c1 2 2 5 1 9-11-4-22-6-32-6l-18-178-2-52c4-16 7-32 8-49-1-13-5-24-12-34-4-11-6-22-6-32 11-12 23-23 35-33Z"/><path fill="#fcfcfd" d="m1496 148-21-2c-33-4-66-5-99-4a516 516 0 0 0-78 20c16 7 31 16 46 28l-83-8c-20 2-38 9-54 20 14 2 28 7 42 14 12 6 24 13 35 22l-1 1-9-3c-12-6-25-10-37-11-22-4-44-5-66-4-14 21-33 37-56 47-22 24-48 37-80 39a234 234 0 0 0-10 3c-9 1-16 5-22 11-5 4-9 10-12 16l-16 13c-17 10-35 17-54 21l45-45 38-35 48-37 112-73c49-27 101-46 157-55 47-5 94-2 141 8 11 4 23 8 34 14Z"/><path fill="#4f96f6" d="M1475 146c-4 6-2 11 5 14 14 5 18 14 9 28-2 9 2 14 12 12l18-7 6 1 11 10c7 1 11-1 12-8-1-5-3-10-6-14v-6c3-2 5-3 9-3l20 9 95 55c11 7 24 10 38 10 30-2 58-11 84-28-8 27-21 52-37 75-13 14-27 27-42 38-30 18-61 26-95 24l-16-4-32-19c-9-8-15-18-19-29l-4-45c-9-20-22-25-41-15-7 6-12 13-16 22-17 38-36 74-58 110-9 11-19 20-31 28l-29 9v4l3 4c21 11 26 27 17 49-8 7-17 13-26 18l-30 10-18 3c-6 2-9 5-9 11l4 3a573 573 0 0 1 189 150 1145 1145 0 0 0-492-202c-73-12-146-14-218-5a538 538 0 0 0-134 38 642 642 0 0 1 127-51c37-7 74-12 112-17 31-1 63-2 95-1-15-12-31-22-48-30l-19-5c2-2 5-3 9-4 1-4 0-7-3-9l-11-5 5-3c19-4 37-11 54-21l16-13c3-6 7-12 12-16-3 6-3 12 0 19 8 11 17 20 28 29 2 7 3 14 2 22l-7 34c-1 6 1 11 7 15-1 2 1 5 4 7 7 6 15 8 25 6l32-8c12-4 25-3 38 2 9 6 20 11 31 15 17 5 27-1 32-18l1-20c0-8 3-13 10-16l36-18c8-8 11-17 8-28-4-10-11-17-21-20-14-7-27-12-41-15l-2 1-3-1 2-1-4-1-12-32-10-14v2c-2-6-5-11-9-14-6-4-12-4-18-2-11 6-20 14-27 24-10 4-19 9-27 15l-29 4-14-1c32-2 58-15 80-39 23-10 42-26 56-47a290 290 0 0 1 103 15l14 7v-3l-4-2c-11-9-23-16-35-22-14-7-28-12-42-14 16-11 34-18 54-20l83 8c-15-12-30-21-46-28l2-3c24-8 50-13 76-17 33-1 66 0 99 4Z"/><path fill="#f5dc6f" d="m1475 146 21 2c19 6 37 14 55 25-4 0-6 1-9 3v6c3 4 5 9 6 14-1 7-5 9-12 8l-11-10-6-1-18 7c-10 2-14-3-12-12 9-14 5-23-9-28-7-3-9-8-5-14Z"/><path fill="#2f5dd5" d="M548 590c10-17 23-32 38-46 21-18 43-34 68-48l49-19c27-9 56-15 85-19 72-9 145-7 218 5 180 29 344 96 492 202a573 573 0 0 0-189-150l-4-3c0-6 3-9 9-11l18-3 30-10c9-5 18-11 26-18 9-22 4-38-17-49l-3-4v-4l29-9c12-8 22-17 31-28 22-36 41-72 58-110 4-9 9-16 16-22 19-10 32-5 41 15l4 45c4 11 10 21 19 29l32 19 16 4c34 2 65-6 95-24 15-11 29-24 42-38 16-23 29-48 37-75l7-6c4 46-9 87-40 123-32 37-72 58-121 61h-47c-31-3-54-18-67-46l-10-27-1-44c-3-2-5-1-7 2-11 17-18 36-20 57-11 3-18 9-21 20 1 41 0 82-2 123-2 15-6 31-13 46-14-7-29-12-44-17-11-2-20 0-29 5l-1 2 4 4a635 635 0 0 1 237 244c12 50 4 97-23 141-19 24-42 43-70 56l-1-2c6-26 8-52 5-78 8-9 16-18 22-28 12-24 14-49 5-74-9-24-22-45-39-63-39-40-83-73-132-99a1124 1124 0 0 0-588-123c-42 4-83 14-121 30-29 12-51 31-68 57a92 92 0 0 0-6 65c-10 8-19 17-28 27-11-22-18-45-22-69-1-6-1-11 1-16Z"/><path fill="#bbd6fc" d="m1274 236 9 3 1-1 4 2v3l-14-7Z"/><path fill="#f6dd70" d="M1420 248c5-2 9 0 11 6v15l3 11 22 10c1 5 0 9-3 12l-20 6-3 3-1 22c-4 7-9 8-15 4l-9-15c-2-4-4-5-7-4l-21 9c-8-2-11-6-9-14l9-12c3-7 1-13-5-16-1-4-2-7-4-9-2-9 1-13 9-14l25 3 18-17Z"/><path fill="#fdfcf9" d="M1150 267c-11-2-20 1-27 8l-20 21c-19 12-39 18-61 19-16 2-25 11-25 27-6-15-1-25 14-30a849 849 0 0 1 47-8c10-3 19-8 27-15 7-10 16-18 27-24 6-2 12-2 18 2Z"/><path fill="#f7dd6f" d="M1150 267c4 3 7 8 9 14l6 31c2 5 6 9 11 13h-7l5 3 47 15c5 4 7 8 6 15 3-4 3-8 0-12-2-3-5-6-8-7 3 0 6 2 10 4 2 1 3 4 4 7 0 5-1 9-5 13l-18 10c-16 4-29 13-37 27a2728 2728 0 0 1-6 36c-4 1-8 2-11 1-14-8-29-15-44-19-9-3-18-4-27-3-14 6-27 14-37 25l-11 2-4-2c-6-4-8-9-7-15l7-34c1-8 0-15-2-22-11-9-20-18-28-29-3-7-3-13 0-19 6-6 13-10 22-11 7-1 15-2 24-1l-18 3c-15 5-20 15-14 30 0-16 9-25 25-27 22-1 42-7 61-19l20-21c7-7 16-10 27-8Z"/><path fill="#3460d6" d="m1183 327-7-2c-5-4-9-8-11-13a506 506 0 0 1-6-33l10 14 12 32 4 1-2 1Z"/><path fill="#eeeded" d="M410 286c-18-1-35 0-52 1l-17 5a339600 339600 0 0 1 20-9c16-1 32 0 49 3Z"/><path fill="#814541" d="m410 286 18 8c-47-11-89-2-127 27l-2-3c4-5 9-9 15-12l27-14 17-5c17-1 34-2 52-1Z"/><path fill="#ae6947" d="M428 294c29 14 52 36 68 66 11 33 11 66 1 100-6 15-16 29-28 40l-25 20c-3 4-5 9-6 15-7 7-13 15-17 24-7 4-13 8-18 14-3 4-6 10-7 16-2 14-2 29-2 44a138 138 0 0 1 19-46l-4 35a8409 8409 0 0 1-27 141c-3 9-4 19-3 29 0 11-1 23-4 35-2-19-3-37-2-56-2-25-4-51-4-76 2-9 3-17 2-25-20-38-23-77-8-116l-2-2c-8 12-15 25-20 39-8-2-15-3-22-6-16-8-31-17-45-28l-5-1-18-26c-12-34-16-68-11-103 3-15 7-28 14-41l-2-1c2-3 3-5 2-8-22 21-33 47-34 79-1 21 0 42 3 64-22-62-14-119 24-172 13-18 29-33 47-45-5 6-9 13-12 21-1 4 0 5 5 4 3-4 7-8 12-10l2 3c38-29 80-38 127-27Z"/><path fill="#e8d98a" d="M1105 289a528 528 0 0 1 0 0Z"/><path fill="#f9f9f9" d="M294 303c-18 12-34 27-47 45-38 53-46 110-24 172v8c-27-47-32-95-13-145 18-40 48-68 88-85l-4 5Z"/><path fill="#92b4cb" d="m1035 307 14 1v1a169 169 0 0 0-26 0l12-2Z"/><path fill="#e2d893" d="M1078 304c-10 3-19 5-29 5v-1l29-4Z"/><path fill="#f9f4de" d="m1176 325 7 2 3 1 33 11c3 1 6 4 8 7 3 4 3 8 0 12 1-7-1-11-6-15l-47-15-5-3h7Z"/><path fill="#4b6dd0" d="m1186 328 2-1c14 3 27 8 41 15v1c-4-2-7-4-10-4l-33-11Z"/><path fill="#7d413d" d="M447 395c-28-45-67-59-116-44-47 23-67 61-60 113 6 28 21 50 46 66a85 85 0 0 1-56-60c-9-46 5-83 41-112 39-27 78-27 118-1 12 10 21 23 27 38Z"/><path fill="#345fd5" d="M1229 342c10 3 17 10 21 20 3 11 0 20-8 28l-36 18c-7 3-10 8-10 16l-1 20c-5 17-15 23-32 18-11-4-22-9-31-15-13-5-26-6-38-2l-32 8c-10 2-18 0-25-6-3-2-5-5-4-7l4 2 6 2 6-1 37-15c5-1 11-2 17-1l22 7 38 20c10 2 16-2 18-12l2-35c3-6 7-10 13-14l27-13c6-4 10-10 12-17v-9l-1-1-1-3c-1-3-2-6-4-7v-1Z"/><path fill="#010001" d="M447 395c18 40 14 78-13 114a93 93 0 0 1-117 21c-25-16-40-38-46-66-7-52 13-90 60-113 49-15 88-1 116 44Z"/><path fill="#867e9a" d="m1234 353 1 1v9l-1-10Z"/><path fill="#e5a453" d="m1233 350 1 3 1 10c-2 7-6 13-12 17l-27 13c-6 4-10 8-13 14l-2 35c-2 10-8 14-18 12l-38-20-22-7c-6-1-12 0-17 1l-37 15-6 1-6-2 11-2c10-11 23-19 37-25 9-1 18 0 27 3 15 4 30 11 44 19 3 1 7 0 11-1l2-5 4-31c8-14 21-23 37-27l18-10c4-4 5-8 5-13Z"/><path fill="#0a0503" d="M476 467c-2-2-3-5-2-7 4-30-1-57-15-82l-14-18c1-2 3-1 5 0 13 11 23 25 28 42 5 19 6 38 1 58l-3 7Z"/><path fill="#7d413d" d="M496 360c5 8 10 17 14 27 4 8 7 16 9 25 1 34-1 69-8 104l-9 27c2-16 4-31 8-45 2-10 3-20 2-30a418 418 0 0 1-47 118l3-52c-2-1-3 0-4 2-6 23-16 45-30 66 2-24 5-47 9-69-3-1-4 0-5 2 1-6 3-11 6-15l25-20c12-11 22-25 28-40 10-34 10-67-1-100Z"/><path fill="#4f96f5" d="M380 383c24 18 28 41 12 68-20 23-44 28-71 13-7-5-12-10-16-16-1-35 16-58 50-67h21l4 2Z"/><path fill="#2f5dd4" d="M380 383c24 7 39 24 44 50 2 35-13 59-45 72-36 7-60-7-72-40-2-6-2-12-2-17 4 6 9 11 16 16 27 15 51 10 71-13 16-27 12-50-12-68Z"/><path fill="#7d413e" d="m252 385 2 1c-7 13-11 26-14 41-5 35-1 69 11 103l18 26 5 1c14 11 29 20 45 28 7 3 14 4 22 6l-4 12-3 2c-16-3-31-9-43-19-27-22-45-49-54-82-5-21-7-43-5-64s8-39 20-55Z"/><path fill="#a3a3a3" d="M890 391Z"/><path fill="#fcfdfd" d="m890 391 31 1 19 5c17 8 33 18 48 30-32-1-64 0-95 1l-112 16a642 642 0 0 0-127 52c-25 14-47 30-68 48-15 14-28 29-38 46a182 182 0 0 1 19-51 356 356 0 0 1 89-91 1392 1392 0 0 1 105-41 576 576 0 0 0 41-7l29-4 41-4 18-1Z"/><path fill="#fdfdfe" d="M339 398c10-1 18 3 25 12 5 16 0 28-16 34-14 2-23-3-28-16-2-16 4-26 19-30Z"/><path fill="#bdbdbd" d="m831 396-29 4c9-3 19-4 29-4Z"/><path fill="#adadad" d="M797 401Z"/><path fill="#aeaeae" d="m751 410-13 4c4-3 8-4 13-4Z"/><path fill="#563323" d="M474 460c-1 2 0 5 2 7l-3 5-1-3 2-9Z"/><path fill="#281515" d="M510 498v-15l-1-3-1 1c0-5 1-10 4-13 1 10 0 20-2 30Z"/><path fill="#c7753e" d="M902 535c124 6 245 32 361 78-2 18-11 24-28 18l-2 1c8 10 19 15 33 14 4-1 8-3 11-7l8-17c13 5 27 11 40 18 8 7 17 14 27 20 19 18 36 38 51 60 6 10 9 21 10 34v48l8 16c12 14 22 29 29 47 8 23 7 46-2 70l-10 22-7 20c-1 14 0 29 2 43 0 19-5 36-16 51l-39 36c-7 7-12 16-15 27-6 24-16 47-30 68-11 10-24 19-37 26-10 7-18 15-26 23a312 312 0 0 1-51 23c-14 14-29 25-46 34-21 8-42 10-63 5-12-3-23-6-34-11-9-3-18-4-26-3l-21 8c-38-6-76-4-112 6-25-12-51-22-77-31-36-1-65-14-89-39l-24-30c-13-6-25-12-36-20l-55-58c-1-6-2-12-6-16l-27-18-4-4-3-23c10 10 22 17 38 19h21c12-6 22-15 27-28l5-14c5-5 10-8 17-9l-26 46-13 10c-8 8-10 17-4 28 2 2 5 5 9 6 14 0 27 5 38 14l9 13 25 55 20 27 19 16c14 9 30 15 48 18l23 1c6-2 10-7 12-13l2-13 4-3v-1c5-3 10-8 14-13 8 1 15 4 22 9l24 33c7 7 16 12 26 16 14 0 28-2 43-6l11-7c12 7 25 11 39 14h15l4-1c12 9 26 11 42 5 9-5 14-14 14-24-2-4-4-7-7-9l3-2c6-12 10-24 11-36 5-1 10 0 16 1l27 16c14 8 29 11 45 7 11-3 21-8 32-13 19-13 30-32 34-55l13-3 1-2c11 5 20 2 27-8l15-25 4-6 6-28 18-30c10-19 12-38 7-57 31-10 47-32 50-64a457 457 0 0 1 0-63l-2-16c-2-10-4-19-8-27a728 728 0 0 1-57-40c-7-14-9-29-7-44-1-5-3-8-6-10 3-13 1-25-6-36-6-7-11-14-15-22-9-8-19-12-30-11-29-23-59-44-89-64-39-20-79-36-120-46l-85-17-102-11c-35-1-70 1-104 5l21-19c28-2 57-3 86-2Z"/><path fill="#874f2a" d="M902 535Z"/><path fill="#f2c156" d="M1295 689c-3 1-5 3-6 6-2 12 2 23 11 33 0 10 3 20 8 30l17 7c8 3 15 0 21-7 3 2 5 5 6 10-2 15 0 30 7 44l21 15c13 6 26 14 36 25a144 144 0 0 1 10 43l-1 40 1 23c-3 32-19 54-50 64 5 19 3 38-7 57l-18 30-6 28-4 6c-1-11-6-15-16-12-13 3-20 10-24 22-3 7-4 15-2 23l-1 2-13 3c-4 23-15 42-34 55-11 5-21 10-32 13-16 4-31 1-45-7l-27-16c-6-1-11-2-16-1-1 12-5 24-11 36l-3 2-11-6c-8-1-16-1-24 1l-12-5c-9-2-15 1-19 9v10c5 6 10 13 17 19l-4 1h-15c-14-3-27-7-39-14l-11 7c-15 4-29 6-43 6-10-4-19-9-26-16l-24-33c-7-5-14-8-22-9 2-13-4-19-17-18-4-1-7 0-9 3l-8 11c-3 4-3 9 1 14l6 3h13v1l-4 3-2 13c-2 6-6 11-12 13l-23-1c-18-3-34-9-48-18l-19-16-20-27-25-55-9-13c-11-9-24-14-38-14-4-1-7-4-9-6-6-11-4-20 4-28l13-10 26-46c-7 1-12 4-17 9l-5 14c-5 13-15 22-27 28h-21c-16-2-28-9-38-19-3-16-9-29-18-40-2-9-2-17 0-25l11-29c2-5 3-10 2-14a96 96 0 0 1-20-93 376 376 0 0 0 38-123c5-22 15-40 32-55l39-36 24-37c11-12 23-23 36-32a1730 1730 0 0 0 55-34 803 803 0 0 1 206 6l85 17c41 10 81 26 120 46 30 20 60 41 89 64Z"/><path fill="#80433f" d="M421 559c-4 8-7 18-8 28l-13 26c-3 6-5 13-6 20 0-15 0-30 2-44 1-6 4-12 7-16 5-6 11-10 18-14Z"/><path fill="#fbfbfb" d="m788 559-48 31c-13 9-25 20-36 32l-24 37-39 36c-17 15-27 33-32 55a376 376 0 0 1-38 123c-10 34-3 65 20 93 1 4 0 9-2 14l-11 29c-2 8-2 16 0 25l-11-12v-14c6-18 7-36 2-53-29-49-27-95 7-139l5-12 8-60c7-29 22-52 44-71l35-22 12-11 16-33c13-20 31-33 54-40l38-8Z"/><path fill="#a74d2c" d="M933 572c15-3 26 3 33 17 2 14-4 26-16 34-10 6-21 8-32 7-18-9-22-23-13-40 7-10 16-16 28-18Z"/><path fill="#c7743e" d="M930 576c17-2 25 6 25 24-8 16-21 25-39 25-12-7-16-17-11-30 6-10 14-16 25-19Z"/><path fill="#060401" d="M790 595c19-2 33 6 41 25 2 14-4 24-17 29-17 2-31-4-40-18-4-11-3-21 4-30 3-3 7-5 12-6Z"/><path fill="#62391d" d="M789 607c15-2 25 4 31 18 0 9-5 14-14 14-14 0-22-7-25-19l2-9 6-4Z"/><path fill="#7a403d" d="M356 694c4-9 4-17 1-25-8-12-13-24-14-37l4-13 7 32 10 24c0 8-2 15-7 23l-1-4Z"/><path fill="#f8f8f8" d="M343 632c1 13 6 25 14 37 3 8 3 16-1 25-4-9-8-16-14-22-4-8-5-16-4-24l5-16Z"/><path fill="#080502" d="M1036 637c16-2 31 1 46 9 7 5 8 12 4 20l-12 10c-15 7-30 11-45 14-12 0-18-6-21-16-2-12 1-22 10-30 5-3 11-6 18-7Z"/><path fill="#9b4528" d="m1059 648-18 5-16 9c-4 5-6 9-7 15-6-19 0-29 20-31 7-1 14 0 21 2Z"/><path fill="#a3482a" d="M1325 640c26 12 52 27 76 44 18 20 30 44 36 71 3 11 2 22-3 33-12 13-11 26 3 39 27 16 41 40 40 73 0 13-2 25-7 37l-17 33v3l6 33c3 22 1 44-6 66-5 10-11 20-19 28-11 7-22 12-34 15-4 2-6 4-7 8-3 22-8 45-16 67l-14 24-15 11c-10 10-18 21-24 33-5 6-12 11-19 15-23 11-47 16-72 17l-34 33a81 81 0 0 1-43 19c-11 1-22 2-32 1l-65-27-30-9 21-8c8-1 17 0 26 3 11 5 22 8 34 11 21 5 42 3 63-5 17-9 32-20 46-34 9-5 19-9 30-12l21-11c8-8 16-16 26-23 13-7 26-16 37-26 14-21 24-44 30-68 3-11 8-20 15-27l39-36c11-15 16-32 16-51-2-14-3-29-2-43l7-20 10-22c9-24 10-47 2-70-7-18-17-33-29-47l-8-16v-48c-1-13-4-24-10-34-15-22-32-42-51-60-10-6-19-13-27-20Z"/><path fill="#643a1d" d="M1059 648c6 1 13 3 19 7 4 3 3 6-1 9l-10 6-28 10c-7 2-13 2-19-1l-2-2c1-6 3-10 7-15l16-9 18-5Z"/><path fill="#ae6947" d="m437 688-2 7c-7 11-12 24-16 37l-7 53v39l-1 42-9 83a750 750 0 0 0 2 79l4-8c7-49 12-98 15-147 2-17 5-33 10-49a1933 1933 0 0 1 19 214h-4c-19-3-38-3-57-1-8-65-13-129-14-193l5-47 19-79c9-21 17-43 23-64 3 11 8 22 13 34Z"/><path fill="#090502" d="M1295 689c11-1 21 3 30 11 4 8 9 15 15 22 7 11 9 23 6 36-6 7-13 10-21 7l-17-7c-5-10-8-20-8-30-9-10-13-21-11-33 1-3 3-5 6-6Z"/><path fill="#7d413d" d="M437 688c4 7 6 15 6 24l-18 38c-8 24-13 48-13 74v-39l7-53c4-13 9-26 16-37l2-7Z"/><path fill="#c9763f" d="M739 696c14-1 19 6 16 21-2 7-7 12-15 14-5-1-7-4-7-8l2-7c-2-5-2-10-1-15 1-3 3-4 5-5Z"/><path fill="#f4f3f2" d="M369 695c0 25 2 51 4 76-1 19 0 37 2 56 3-12 4-24 4-35l4-14 18-60-19 79-5 47c1 64 6 128 14 193l-4 1a10423 10423 0 0 0-26-286c-1-16 0-32 2-47 2-4 3-7 6-10Z"/><path fill="#643a1d" d="M1296 699c6-1 13 1 20 5l16 23c6 8 8 17 6 27l-2 3c-7-1-12-4-16-8l-6-19-18-31Z"/><path fill="#010100" d="M825 700c24-4 45 4 62 22 16 22 17 45 3 69a63 63 0 0 1-63 28c-32-7-48-27-50-58 2-32 18-52 48-61Z"/><path fill="#020101" d="M1187 701c33-1 54 15 64 47 5 32-7 56-35 72-36 13-63 2-80-31-11-40 2-69 40-86l11-2Z"/><path fill="#9b4528" d="m1296 699 18 31 6 19c4 4 9 7 16 8-3 1-5 2-8 1l-14-5c-5-8-7-17-6-26l-11-16c-1-4-2-8-1-12Z"/><path fill="#060401" d="M670 713c8-2 14 1 20 7 8 12 7 24-2 36-9 8-17 18-23 29-8 9-17 10-27 3-7-6-8-13-5-21 7-11 12-22 13-34 2-6 5-10 10-13l14-7Z"/><path fill="#62391d" d="M671 723c7-2 11 1 13 9v10l-7 11c-8 7-15 16-20 26-6 6-11 6-17 0v-7l10-19 4-18c0-2 1-3 3-4l14-8Z"/><path fill="#fafafa" d="M1212 739c9-1 16 2 21 11 1 16-6 23-22 21-11-6-13-14-8-24l9-8Z"/><path fill="#f8f8f8" d="M863 741c18 1 23 10 15 27-11 9-20 7-27-4-1-6 0-12 2-17 3-3 6-5 10-6Z"/><path fill="#070502" d="M987 772c19-1 32 7 41 25 4 16-2 25-18 29-9-1-16-4-23-8l-20-15c-4-9-3-17 5-23l15-8Z"/><path fill="#3c2c24" d="m382 763-1 18c0-2 1-3 2-3l-4 14c-1-10 0-20 3-29Z" opacity=".8"/><path fill="#62391d" d="M991 782c12 1 22 8 28 19 1 14-6 19-20 13-10-5-18-11-25-17-1-3 0-6 2-8l15-7Z"/><path fill="#7b403c" d="M448 1038h4a1933 1933 0 0 0-19-214l6-18 7 29a6196 6196 0 0 1 17 204l-1 3-14-4Z"/><path fill="#c6733e" d="M1120 838h-3c12 6 13 13 3 22l-15 3-7-5c-2-2-2-4-1-5 3-8 8-13 15-16 2-1 5-1 8 1Z"/><path fill="#aa512e" d="M1120 838c14 6 15 14 4 25-9 5-17 5-24-1-2-1-2-3-2-4l7 5 15-3c10-9 9-16-3-22h3Z"/><path fill="#a74c2c" d="M619 866v-1c7 9 15 10 24 3 5-8 5-15-1-21l-5-1c-5 0-10 2-14 4 2-4 6-6 11-6 14-2 21 4 19 19-4 12-13 16-25 13-6-2-9-5-9-10Z"/><path fill="#c6733e" d="M619 866c-2-4-2-7-1-10s2-5 5-6c4-2 9-4 14-4l5 1c6 6 6 13 1 21-9 7-17 6-24-3v1Z"/><path fill="#070502" d="M1389 850c20-4 30 4 30 25 0 10-4 17-13 21l-10 13c-9 5-16 3-21-5l-7-12c-3-9-2-18 3-25l18-17Z"/><path fill="#090602" d="M762 857c26-2 35 10 27 35-8 9-18 12-30 8-14-7-18-18-11-32 4-5 8-9 14-11Z"/><path fill="#62391d" d="M1392 859c13-2 19 3 18 17 0 6-2 10-8 12-4 3-6 6-8 10s-5 4-9 2l-7-11c-1-6 0-11 2-16l5-4 7-10Z"/><path fill="#a74c2c" d="M1254 861c11-1 22 2 33 7 9 9 10 18 3 30-7 9-17 13-29 11l-18-12-21-3c-6-3-8-7-6-12 9-14 21-21 38-21Z"/><path fill="#62391d" d="M765 867c6-1 12 1 17 5 5 10 2 17-9 20-8 1-14-1-19-6-4-11 0-17 11-19Z"/><path fill="#c7743e" d="M1260 868c8-1 15 1 23 5 7 8 7 17 1 27-6 6-13 8-21 6-11-7-22-13-34-17-1-4 0-7 3-10l14-2c4-3 9-7 14-9Z"/><path fill="#010000" d="M1124 876c12-1 24 0 37 1 13 4 21 12 24 27 3 19 1 38-6 57-18 49-51 86-97 111-25 11-50 15-76 13-27-4-52-12-76-23-42-22-71-56-87-100-6-20-7-39-3-58 3-14 12-23 26-27h26c22 4 45 8 68 14l27 2c46-2 91-8 137-17Z"/><path fill="#7d423c" d="m411 866-8 150a750 750 0 0 1 8-150Z"/><path fill="#ce8042" d="M803 911c5-1 10 0 16 1-11-1-20 3-25 13-1-3 0-6 1-8 2-3 5-5 8-6Z"/><path fill="#070402" d="M650 954c11-2 19 3 24 13v11l-7 29c-2 11-8 17-19 19-15 2-24-4-27-18-1-9 0-18 4-25-2-15 4-24 19-26l6-3Z"/><path fill="#a04729" d="M650 1016c-6 0-8-3-6-8l7-12c1-10 0-19-1-27 4-5 8-4 12 1l1 5-9 39-4 2Z"/><path fill="#63391d" d="M650 969c1 8 2 17 1 27l-7 12c-2 5 0 8 6 8-14 4-21-1-21-15 3-9 5-19 5-28 1-2 3-4 6-4h10Z"/><path fill="#060402" d="M1231 969c28 1 38 15 29 42-6 14-16 19-31 16-19-2-27-12-26-30 2-9 7-15 14-21l14-7Z"/><path fill="#62391d" d="M1234 981c20 1 25 11 14 29-5 4-11 6-18 4-16-3-20-11-12-25 5-4 10-6 16-8Z"/><path fill="#e56f7c" d="M996 1005c28-3 54 2 78 17l8 9c1 3 0 6-3 8-12 5-25 8-37 8-23 1-45 0-66-2-13-1-25-6-35-13-1-2-1-4 1-6 16-11 34-19 54-21Z"/><path fill="#faf9f9" d="M562 1102c-15-29-35-52-61-69l-10-3c-1-6-2-12-1-17 24 5 44 19 58 41 9 14 13 30 14 48Z"/><path fill="#faf9f7" d="M1565 1015c6 3 12 7 17 14l2 5c-36-7-62 5-80 36 4-37 24-55 61-55Z"/><path fill="#c4743e" d="M1565 1015c21 2 35 13 43 33l-14 2c0-1 1-2 3-1-2-8-6-13-13-15l-2-5c-5-7-11-11-17-14Z"/><path fill="#f0bf56" d="m491 1030 10 3c26 17 46 40 61 69l1 14c-8-17-21-26-39-27l-14-16c-6-5-11-9-17-12-2-11-3-21-2-31Z"/><path fill="#f1c056" d="M1584 1034c7 2 11 7 13 15-2-1-3 0-3 1-31 3-57 15-80 34l-10 11c-2-9-2-17 0-25 18-31 44-43 80-36Z"/><path fill="#a74d2c" d="M1343 1041c17-2 24 6 21 23-2 10-8 16-17 19-11-2-17-8-18-18-2-12 2-20 14-24Z"/><path fill="#c7743e" d="M1342 1044c10-1 15 4 16 15-1 9-5 15-13 18-9-3-14-9-13-18 0-8 3-13 10-15Z"/><path fill="#c97840" d="M799 1049c7-1 15 0 23 2 6 6 8 13 5 21h-3a48 48 0 0 0-45-10c-4 0-8-1-10-3l30-10Z"/><path fill="#fbfaf9" d="M454 1071c-26-3-50 2-72 16a93 93 0 0 0-35 84c1 10 3 20 7 30l9 24c4 10 10 20 18 30-13-7-24-16-33-27-13-23-20-48-21-74 0-9 1-18 4-26l12-25c26-29 58-41 96-37l15 5Z"/><path fill="#f2c157" d="M454 1071c6 1 13 4 19 8l16 12 6 9c8 23 11 48 7 74-8 31-27 51-57 60-24 5-47 3-68-8-11-6-18-15-23-25-4-10-6-20-7-30-3-34 9-62 35-84 22-14 46-19 72-16ZM1627 1084c19 15 30 34 33 59 0 20-5 39-16 57-13 18-28 33-46 46a81 81 0 0 1-73 11c-7-3-14-7-19-12-4-9-7-19-7-28 5-43 20-82 46-116 5-6 11-11 17-15 14-7 30-9 47-7 6 1 12 2 18 5Z"/><path fill="#a3482a" d="M1627 1084c27 10 44 29 51 59a140 140 0 0 1-132 161l-24-4c-8-6-13-14-16-22 23 14 47 15 73 3l12-7 33-27c25-26 38-58 38-95l-2-9c-3-25-14-44-33-59Z"/><path fill="#faf9f8" d="M1562 1086c-6 4-12 9-17 15-26 34-41 73-46 116l-2 10c-2-35 3-68 14-100 6-15 16-26 31-33 6-4 13-7 20-8Z"/><path fill="#c4733e" d="M524 1089c18 1 31 10 39 27-2 16-6 31-13 46l-8-35c-4-14-10-27-18-38Z"/><path fill="#070502" d="M760 1090c15-3 25 3 32 17l6 15c1 10-3 18-12 23l-45 3c-19 0-28-10-26-28 3-13 11-20 24-22 6-5 13-7 21-8Z"/><path fill="#080502" d="M938 1091c11-3 21 1 28 11 1 5 0 9-3 13l-20 12c-10 5-19 3-26-4-2-4-3-7-2-10l14-17 7-3 2-2Z"/><path fill="#63391d" d="m727 1124 3 2c9-2 13-7 13-15-1-2-3-3-4-2 5-4 11-8 18-11 7-1 14 0 21 3 5 8 9 16 12 26-2 5-5 9-11 10l-43-1c-7-2-10-6-9-12Z"/><path fill="#61391d" d="M937 1099c7-2 13 0 19 5v4c-6 2-12 6-16 10-5 2-10 3-14 2-3-1-4-3-3-5l14-16Z"/><path fill="#050301" d="M1185 1164c-14 2-28 4-41 4-11-2-16-8-15-19l1-11c6-11 14-21 23-30 15-9 31-11 49-5 12 7 17 17 13 32-6 14-16 23-30 29Z"/><path fill="#ca7940" d="M1012 1108c9-2 18 1 26 6-17-1-29 4-38 18-2-12 2-20 12-24Z"/><path fill="#c7743e" d="M495 1100c4 5 7 11 10 18 15 36 20 75 15 115l-6 20-23 7c-50 12-93 0-128-35l-9-24c5 10 12 19 23 25 21 11 44 13 68 8 30-9 49-29 57-60 4-26 1-51-7-74Z"/><path fill="#9f4729" d="M739 1109c1-1 3 0 4 2 0 8-4 13-13 15l-3-2c0-4 2-8 4-11s5-4 8-4Z"/><path fill="#a04729" d="M1195 1115c-1 5-3 9-7 12-13 9-28 13-43 11-2 0-3-2-3-3 3-8 8-14 14-20 12-4 25-5 39 0Z"/><path fill="#305dd4" d="m1469 1207-9-5c-1-1-2-2-1-3l1-10 5-25-1-4c-3 4-5 9-6 15-3 5-5 11-6 17-7-7-12-15-15-23 6-16 16-28 29-37l16-20 3 13c-6 15-11 31-13 48l-3 34Z"/><path fill="#63391d" d="M1195 1115c7 4 10 11 6 20-6 9-14 15-24 19l-28 5c-11-1-14-7-11-17 1-3 2-6 4-7 0 1 1 3 3 3 15 2 30-2 43-11 4-3 6-7 7-12Z"/><path fill="#090502" d="m1341 1143-15 25c-7 10-16 13-27 8-2-8-1-16 2-23 4-12 11-19 24-22 10-3 15 1 16 12Z"/><path fill="#ca7840" d="M1120 1126h2c-9 21-25 31-47 30-8-2-13-6-17-12 17 1 34-2 51-9 4-2 8-5 11-9Z"/><path fill="#a3482a" d="m636 1135 55 58c11 8 23 14 36 20l24 30c24 25 53 38 89 39 26 9 52 19 77 31-10 3-20 6-29 11l-36-15c-27-4-53-12-76-25-15-10-27-23-38-36l-12-25-4-5c-16-3-31-8-45-16-11-8-21-17-30-26-8-13-12-27-11-41Z"/><path fill="#2f5dd4" d="M612 1211a976 976 0 0 1-38 23c-5-9-6-8-3 1l-16 20-4-68 12-27 8-26c10 27 24 53 41 77Z"/><path fill="#62391d" d="M1321 1142c3-1 7 0 10 1 1 2 0 5-2 8l-12 19c-5 4-9 4-14 2 0-9 2-16 6-23 4-3 7-6 12-7Z"/><path fill="#c7753f" d="m1660 1143 2 9c0 37-13 69-38 95l-33 27-12 7a72 72 0 0 1-73-3c-7-17-10-34-9-51l2-10c0 9 3 19 7 28 5 5 12 9 19 12 26 8 50 4 73-11 18-13 33-28 46-46 11-18 16-37 16-57Z"/><path fill="#ac893d" d="m1185 1164-4 2c-13 2-25 3-37 2 13 0 27-2 41-4Z"/><path fill="#4f96f6" d="M1437 1169c3 8 8 16 15 23a722 722 0 0 0-10 119c-4 61 12 116 47 166l4 4v-3c-11-17-19-34-24-52-7-27-12-53-14-80a494 494 0 0 1 5-144l9 5c-2 32 0 65 7 97 5 28 11 57 19 86l23 58c7 14 17 28 29 39 13 11 27 12 43 4l15-11c13-22 20-45 21-69l2-35c4-9 11-15 20-19l1-3c5 33 7 66 5 101-2 21-9 41-21 59-24 16-50 23-78 20-55-10-95-40-119-90l-18-43c-7-21-12-41-17-61a361 361 0 0 0 22 102l6 41-26-29-45-64-12-23c-2-2-5-2-7 0-1 3-2 7-1 11-3 7-5 15-6 24 0 31 2 63 8 95a2565 2565 0 0 0 22 127l-49 20c-38-8-72-2-104 19-3-21-12-39-26-54a92 92 0 0 0-57-17l-2-13-14-65c28 30 61 39 100 25l20-17 4-8 2 18-2 10c-6 5-9 11-9 20 2 4 6 6 11 6l18-2 7 18c8 7 15 6 20-3l2-14 2-2 22-5c5-6 5-11-1-16l-13-8v-7l7-19c-2-6-5-9-11-7-7 6-15 10-22 15l-17-9c-4-1-7-2-10-1 6-16 7-32 4-48-1-5-3-8-5-11-5-15-14-27-26-36l-25-16 17-2c20-7 37-18 52-34l6-3 42-1c26 0 51-7 73-23 10-9 17-20 21-32 4-23 6-46 8-69a70855 70855 0 0 1 30-64Z"/><path fill="#f9fbfe" d="m1460 1189-1 10c-9 48-10 97-4 147 2 27 7 53 14 80 5 18 13 35 24 52v3l-4-4c-35-50-51-105-47-166a722 722 0 0 1 10-119c1-6 3-12 6-17l3-3 1 2c-2 5-2 10-2 15Z"/><path fill="#d8e0f7" d="M1460 1189c0-5 0-10 2-15l-1-2-3 3c1-6 3-11 6-15l1 4-5 25Z"/><path fill="#4f96f6" d="m612 1211 17 18 20 18 17 11 23 8c5 16 15 30 28 41l37 28c19 10 38 18 59 25-27 16-46 39-57 68-8 27-5 52 12 75-4 2-7 5-8 9-5 4-10 6-16 7-6-2-13-3-19-2-5 2-7 5-5 10l10 12 2 5-4 11-9 15c-2 5 0 9 6 10l16-5c6 0 11 2 16 5l10 13c3 1 6 1 9-1l4-22 4-8c7-6 15-10 24-13 2-3 2-7 0-10-8-2-14-5-20-9-5-5-8-10-9-16l19 11c10 12 23 19 40 21 19 4 38 1 57-7-9 38-20 76-31 115-13-6-26-9-39-9-14 1-26 3-39 8-6-4-13-5-20-5l-4-14a93 93 0 0 0-50-50c-17-5-33-5-48 1l-16 8c20-68 34-137 41-206v-30c1-10-1-18-6-25-2-1-4-1-5 1-14 27-27 55-39 83l-18 30 10-75a634 634 0 0 0-1-92 1358 1358 0 0 1-17 101l-27 81-15 28-3-25c-2-5-5-6-8-2 16-63 23-127 20-192-1-13-3-25-6-36l8-7 30-16Z"/><path fill="#0d0904" d="M884 1233c-4 5-9 10-14 13h-13l-6-3c-4-5-4-10-1-14l8-11c2-3 5-4 9-3 13-1 19 5 17 18Z"/><path fill="#62391d" d="M864 1222c4-1 8 0 13 2 1 7-1 12-6 16-5 1-10 2-14 1-3-1-4-2-4-4 3-6 7-11 11-15Z"/><path fill="#a2482a" d="M363 1225c35 35 78 47 128 35l23-7c-6 14-17 22-32 24-37 5-71-3-101-22-8-10-14-20-18-30Z"/><path fill="#4f96f5" d="m571 1235 3 8 4 27a668 668 0 0 1-31 211c-1-19-4-37-8-54 7-20 11-40 13-60 4-38 4-75 3-112l16-20Z"/><path fill="#2f5dd5" d="M1407 1233c-2 23-4 46-8 69-4 12-11 23-21 32-22 16-47 23-73 23l-42 1-6 3c-15 16-32 27-52 34l-17 2-15-9c35-10 64-29 88-57 24 0 46-6 68-18a216 216 0 0 0 78-80Z"/><path fill="#d5e5fc" d="M574 1234c3 11 5 23 6 36l-2-7v7a308 308 0 0 0-7-35c-3-9-2-10 3-1Z"/><path fill="#060401" d="M1117 1263c3 2 5 5 7 9 0 10-5 19-14 24-16 6-30 4-42-5-7-6-12-13-17-19v-10c4-8 10-11 19-9l12 5c8-2 16-2 24-1l11 6Z"/><path fill="#62391d" d="M1063 1262c4-1 8 0 11 4l29 2c11 4 12 9 4 17-12 5-22 4-32-3l-15-13c-1-4 0-6 3-7Z"/><path fill="#f9fbfe" d="M580 1270a620 620 0 0 1-28 214l-5 1v-4l6-17a668 668 0 0 0 27-194Z"/><path fill="#305dd3" d="m621 1446-3 4v-73a867 867 0 0 0 14-94 634 634 0 0 1-11 163Z"/><path fill="#753d3a" d="m407 1307 10 1-6 32c-2-11-4-22-4-33Z"/><path fill="#f4f3f3" d="M435 1311c-3 24-9 48-16 71-2-5-2-9-1-13l8-59c3-1 6 0 9 1Z"/><path fill="#ae6a48" d="m435 1311 17 1-3 19c-8 22-18 45-28 67-2-6-2-11-2-16 7-23 13-47 16-71Z"/><path fill="#ad6847" d="m471 1311-2 24a7511 7511 0 0 0-17 205l-5 35c1-12-2-22-9-31l-2-10a2668 2668 0 0 1-11-115l29-75c3-12 6-23 11-33h6Z"/><path fill="#7d413d" d="M461 1427c0-31 3-62 8-92l2-24c2-1 4-2 7-1l-5 55-12 62Z"/><path fill="#7c413c" d="M452 1312c2-1 4 0 6 1l-9 18 3-19Z"/><path fill="#2e5bd0" d="m1649 1354-1 3c-9 4-16 10-20 19l-2-47c3-7 8-14 13-19l10 44Z"/><path fill="#fafaf8" d="M1119 1379c-21-12-42-22-63-31-72-11-139 0-203 33-20 11-38 25-52 43-8 10-13 22-13 36-1 4 0 9 2 13l1 6 6 10c-9-7-15-16-17-26-2-16 2-31 11-44 14-20 32-36 53-48a343 343 0 0 1 197-34l39 15 39 27Z"/><path fill="#bcd3f9" d="M631 1292c-3 28-8 57-13 85h-2a1358 1358 0 0 0 15-85Z"/><path fill="#f7dd6f" d="m1119 1379 12 7 48 37c0 4 2 8 5 11 9 11 9 23 0 35-10 4-18 3-26-3l-10-8c-2-5-5-9-8-12-1-3-2-6-1-8l8 4c-2-5-5-9-8-12a137 137 0 0 1-23-19l-23-15c-6-6-13-11-20-15l-45-18c-10-1-19-2-28-1l-43 7a256 256 0 0 0-104 33c-13 7-24 17-32 30-5 13-4 25 4 37 6 4 12 7 20 8l15 2 30-5c2 0 3 2 2 4-31 16-62 18-93 4l-9-9c-2-4-3-9-2-13 0-14 5-26 13-36 14-18 32-32 52-43 64-33 131-44 203-33 21 9 42 19 63 31Z"/><path fill="#7b403d" d="m492 1593 2-3c-3-20-6-40-7-59-6-38-11-75-14-111 1-22 6-44 12-64 5 66 10 133 17 200l2 42-12-5Z"/><path fill="#2f5cd2" d="M689 1357v30c-7 69-21 138-41 206-8 4-15 10-22 16-5-4-10-6-15-6v-3c21-30 37-62 49-96l16-57 13-90Z"/><path fill="#e2a14f" d="M957 1369c-28 8-56 19-82 31-12 6-22 13-32 20-6 5-11 10-15 16-8 14-4 24 12 30 13 1 25-2 37-9l58-44a508 508 0 0 0 27-17c-9 10-16 21-22 33-14 22-31 42-51 59a85 85 0 0 1-88 4l-4-3-6-10-1-6 9 9c31 14 62 12 93-4 1-2 0-4-2-4l-30 5-15-2c-8-1-14-4-20-8-8-12-9-24-4-37 8-13 19-23 32-31a256 256 0 0 1 104-32Z"/><path fill="#2f5dd5" d="M1338 1378c-1 12 0 24 3 37 11 53 32 102 61 148l14 28-2 3c-17 11-35 21-52 30l-2-19-20-108c-6-32-8-64-8-95 1-9 3-17 6-24Z"/><path fill="#e2a14f" d="m1068 1620-29-146a260 260 0 0 0-14-44c-4-10-11-12-19-7-9 9-13 19-13 32a981 981 0 0 0 2 140c-9-50-12-101-11-151 1-14 4-28 8-41 9-11 21-13 34-7l4 5c13 25 21 51 24 80 8 44 14 89 19 134l-5 5Z"/><path fill="#e3e0d0" d="M1093 1396a219 219 0 0 1 27 20c-10-6-19-13-27-20Z" opacity=".8"/><path fill="#f4da6d" d="M992 1403c-4 13-7 27-8 41-1 50 2 101 11 151-12-2-24-2-35 2-1-47 3-94 11-140 2-19 8-36 17-51 1-2 2-3 4-3Z"/><path fill="#ac6746" d="M473 1420c3 36 8 73 14 111a783 783 0 0 0 5 62c-13-4-25-6-37-6l5-43 6-97 7-27Z"/><path fill="#e4a250" d="M1179 1423c11 8 21 18 30 30 13 21 8 37-15 46-24 5-39-4-48-26-4-9-6-18-6-27 3 3 6 7 8 12l10 8c8 6 16 7 26 3 9-12 9-24 0-35-3-3-5-7-5-11Z"/><path fill="#2f5dd4" d="M539 1427c4 17 7 35 8 54v4l5-1 8-22c3-4 6-3 8 2l3 25c-10 18-22 34-37 48l-10-77v-5c6-9 10-19 15-28Z"/><path fill="#f1d76b" d="m1029 1443 1 1c4 9 7 19 9 30l29 146-15 19c-6-66-15-131-24-196Z"/><path fill="#2f5dd4" d="M1239 1449c2 3 4 6 5 11 3 16 2 32-4 48-3 1-5 3-6 6l-4 8-20 17c-39 14-72 5-100-25a3174 3174 0 0 0 16 78l-19 3-6-56c-5-23-8-46-11-69 8 8 18 15 30 20 8 12 19 22 31 30 18 9 38 10 58 3 27-18 37-42 30-74Z"/><path fill="#2f5dd3" d="M1633 1514c-26 25-56 37-92 34-21-5-39-14-55-28-23-27-43-55-59-86-1-3-3-4-5-4l1 12-7-16c-8-29-13-57-15-86a645 645 0 0 0 35 104c24 50 64 80 119 90 28 3 54-4 78-20Z"/><path fill="#2f5dd5" d="m880 1663-16-9c11-39 22-77 31-115-19 8-38 11-57 7-17-2-30-9-40-21 50 12 93-1 129-37l-7 49-22 104-9 27-9-5Z"/><path fill="#f6dd70" d="m768 1503 11 11c1 6 4 11 9 16 6 4 12 7 20 9 2 3 2 7 0 10-9 3-17 7-24 13l-4 8-4 22c-3 2-6 2-9 1l-10-13c-5-3-10-5-16-5l-16 5c-6-1-8-5-6-10l9-15 4-11-2-5-10-12c-2-5 0-8 5-10 6-1 13 0 19 2 6-1 11-3 16-7 1-4 4-7 8-9ZM1234 1514c1-3 3-5 6-6s6 0 10 1l17 9c7-5 15-9 22-15 6-2 9 1 11 7l-7 19v7l13 8c6 5 6 10 1 16l-22 5-2 2-2 14c-5 9-12 10-20 3l-7-18-18 2c-5 0-9-2-11-6 0-9 3-15 9-20l2-10-2-18Z"/><path fill="#fafafa" d="M685 1630c17-2 28 6 32 24-3 17-12 26-29 28-21-4-28-16-23-36 5-8 11-14 20-16Z"/><path fill="#fdfdfd" d="M1590 1653a1026 1026 0 0 0 5 90c17-16 36-32 55-47 13-4 23 0 30 13 2 7 1 14-2 22a1674 1674 0 0 1-37 37l3 7 42 47c5 9 4 18-4 25-9 7-18 8-28 4a1265 1265 0 0 1-61-62l-4 49c-3 7-8 12-15 14-11 2-20-2-27-10l-6-12v-21l2-161c7-15 18-20 34-14l9 10c2 2 3 5 4 9Z"/><path fill="#fcfcfc" d="m452 1681-7-1c-4-1-7 0-10 2-22 5-38 18-48 38-8 16-9 33-1 51 18 36 45 46 82 28 7-5 10-12 9-20l-3-5c-19 2-30-6-34-23-1-6 0-10 3-14 4-5 10-8 16-9 17-1 35-2 53-1 9 4 15 12 17 23 2 28 2 57 0 87-2 6-7 10-12 13-13 6-24 3-33-7h-3a93 93 0 0 1-101-9c-13-10-24-22-33-35a99 99 0 0 1-11-65c3-23 11-43 26-59 19-22 42-35 71-39 13-1 27 0 41 2l27 11c12 6 20 15 24 28 2 10-2 18-12 22h-9c-16-10-34-16-52-18Z"/><path fill="#fdfdfd" d="m1180 1788 4 44c-4 9-10 16-18 21-12 3-22 1-30-7l-6-12-17-93c-2-3-4-3-6 1-9 20-21 39-34 58-5 6-12 9-20 9-9 0-16-3-22-9l-34-57c-2-2-4-3-6-2l-2 12a755 755 0 0 1-18 91c-11 11-24 14-37 7-7-6-12-12-14-20l2-29c7-47 15-93 24-139 3-7 6-12 11-17 5-3 11-5 18-5l14 5a3901 3901 0 0 1 64 85 2308 2308 0 0 0 53-76c7-12 17-17 31-15 11 5 20 13 24 26 5 40 12 81 19 122Z"/><path fill="#090f17" d="m762 1634 4 14c7 0 14 1 20 5 13-5 25-7 39-8 13 0 26 3 39 9l16 9h-4c-28-16-58-19-88-8l-6-1v4l-2-5-16-4-2-5v-10Z"/><path fill="#323232" d="M1590 1653Z"/><path fill="#a7a7a7" d="M452 1681c-6-1-12 0-17 1 3-2 6-3 10-2l7 1Z"/><path fill="#fdfdfd" d="M1443 1692c28-3 52 5 73 25 7 10 6 20-3 29-7 6-15 8-24 7l-19-11c-22-4-37 3-45 24-4 21 5 35 26 41 7 1 14 0 21-2l18-10c11-3 20 0 28 9 7 14 3 26-10 34-22 11-44 16-68 13-33-7-54-27-63-59-5-20-3-39 7-56 14-23 33-38 59-44ZM553 1840l-2-28c-2-35-2-69 0-103 2-6 6-10 12-12 9-3 19-2 28 3l10 9 20-10c6-1 13-2 20-1 10 2 15 9 15 19-1 10-4 18-11 24l-31 11c-13 8-18 19-14 33l-2 47c0 6-2 11-5 17l-9 5h-17c-7-3-11-8-14-14ZM1273 1695c39-1 67 17 84 52 14 39 3 72-30 97a91 91 0 0 1-75 8c-41-20-58-52-52-96 7-27 24-46 50-56 7-3 15-4 23-5Z"/><path fill="#fcfcfc" d="M682 1696c9-2 17 0 25 5 2 2 5 5 6 9 2 41 2 82 2 124-3 13-12 21-26 22-9-2-16-7-19-15l-4-33c-1-32-1-63 1-94 2-9 7-15 15-18Z"/><path fill="#fdfdfd" d="m894 1814-23 29a83 83 0 0 1-62 11c-7-3-13-6-18-11h-4l-2 44c-2 20-13 28-32 26-7-3-12-9-15-15l1-185c3-8 9-12 18-14 11-1 21 2 31 8 30-16 59-14 87 7a91 91 0 0 1 19 100Z"/><path fill="#232323" d="M1074 1700c-6 11-13 21-21 31l-18-24h3l14 20 2-1 14-22c1-2 3-3 6-4Z"/><path fill="#030303" d="M811 1742c29 0 42 15 40 44-6 18-18 26-36 25-21-5-31-18-30-39 2-16 11-26 26-30Z"/><path fill="#020202" d="M1273 1743c20-3 34 5 41 25 3 21-6 35-26 42-29 2-43-12-41-40 4-14 13-23 26-27Z"/><path fill="#373737" d="m989 1753-3 33-4 8c1-14 4-28 7-41Z"/><path fill="#242424" d="M1180 1788a491 491 0 0 0 0 0Z"/><path fill="#c7c7c7" d="M551 1812Z"/><path fill="#2d2d2d" d="M894 1814a48 48 0 0 1-23 29l23-29Z"/></svg>