<?xml version="1.0" encoding="UTF-8"?>
<!DOCTYPE svg PUBLIC "-//W3C//DTD SVG 1.1//EN" "http://www.w3.org/Graphics/SVG/1.1/DTD/svg11.dtd">
<svg xmlns="http://www.w3.org/2000/svg" version="1.1" width="512px" height="512px" style="shape-rendering:geometricPrecision; text-rendering:geometricPrecision; image-rendering:optimizeQuality; fill-rule:evenodd; clip-rule:evenodd" xmlns:xlink="http://www.w3.org/1999/xlink">
    <g><path style="opacity:0.962" fill="#000000" d="M 447.5,188.5 C 446.504,188.586 445.671,188.252 445,187.5C 444.333,188.5 444.333,189.5 445,190.5C 462.605,207.422 479.605,224.755 496,242.5C 496.456,243.744 495.956,244.577 494.5,245C 497.167,246.333 497.167,247.667 494.5,249C 498.665,250.483 500.165,253.316 499,257.5C 481.075,277.262 462.575,296.595 443.5,315.5C 444.038,328.189 444.038,341.689 443.5,356C 443.108,357.011 442.441,357.511 441.5,357.5C 442.687,358.519 443.687,359.686 444.5,361C 444.016,378.321 443.349,395.988 442.5,414C 442.241,416.942 442.575,419.608 443.5,422C 441.795,425.168 440.962,428.668 441,432.5C 431.896,447.933 422.396,463.099 412.5,478C 409.677,476.588 406.677,475.088 403.5,473.5C 395.5,479.833 387.5,486.167 379.5,492.5C 372.524,490.69 367.524,486.523 364.5,480C 365.956,478.255 367.289,476.422 368.5,474.5C 376.542,469.818 384.208,464.652 391.5,459C 390.047,455.928 388.213,453.095 386,450.5C 385.51,449.207 385.343,447.873 385.5,446.5C 397.277,440.966 409.61,436.466 422.5,433C 407.219,433.802 392.053,433.635 377,432.5C 375.128,433.068 373.295,433.735 371.5,434.5C 366.084,433.597 360.584,433.264 355,433.5C 348.667,434.167 342.333,434.833 336,435.5C 332.75,435.632 329.75,435.299 327,434.5C 325.601,435.227 324.101,435.727 322.5,436C 302.752,457.081 282.419,477.414 261.5,497C 259.421,498.64 257.088,499.806 254.5,500.5C 231.72,479.889 209.387,458.722 187.5,437C 173.254,436.746 158.921,436.579 144.5,436.5C 132.581,436.687 120.748,437.354 109,438.5C 97.8456,438.713 86.8456,438.379 76,437.5C 73.6212,437.482 71.4545,438.149 69.5,439.5C 68.7518,436.503 68.0851,433.503 67.5,430.5C 67.4771,393.192 67.4771,356.525 67.5,320.5C 45.1482,299.315 23.6482,277.315 3,254.5C 2.50776,253.451 2.67443,252.451 3.5,251.5C 1.19453,249.314 1.19453,246.981 3.5,244.5C 23.9048,223.926 44.7381,203.926 66,184.5C 66.11,149.151 66.7767,113.817 68,78.5C 68.5,78 69,77.5 69.5,77C 71.505,77.5025 73.6716,78.0025 76,78.5C 86.6366,77.9545 97.3032,77.9545 108,78.5C 109.711,78.5607 111.044,77.8941 112,76.5C 116.962,76.8237 121.628,77.157 126,77.5C 144.427,76.6735 162.927,76.1735 181.5,76C 203.963,54.1992 227.63,33.8658 252.5,15C 250.715,13.4071 250.548,11.9071 252,10.5C 253.722,10.9615 255.555,11.1282 257.5,11C 260.557,13.7226 263.89,16.056 267.5,18C 287.138,36.6379 306.472,55.6379 325.5,75C 365.057,74.7404 404.391,74.7404 443.5,75C 444.98,76.2991 445.646,77.9658 445.5,80C 444.929,115.345 444.596,150.845 444.5,186.5C 446.179,186.285 447.179,186.952 447.5,188.5 Z M 304.5,71.5 C 303.5,71.5 302.5,71.5 301.5,71.5C 301.44,70.9569 301.107,70.6236 300.5,70.5C 299.738,71.6283 299.071,72.7949 298.5,74C 296.942,74.21 295.609,74.71 294.5,75.5C 265.064,76.5319 235.731,76.3653 206.5,75C 224.431,58.0729 241.264,40.2396 257,21.5C 272.307,38.641 288.14,55.3077 304.5,71.5 Z M 71.5,81.5 C 91.1593,80.9946 110.659,80.6613 130,80.5C 131.285,80.9504 132.452,81.6171 133.5,82.5C 133.833,81.8333 134.167,81.1667 134.5,80.5C 139.198,82.7424 143.698,83.0757 148,81.5C 156.422,82.318 164.922,82.818 173.5,83C 140.362,114.096 107.528,145.263 75,176.5C 74.6351,149.159 73.9684,121.826 73,94.5C 72.8247,89.9805 72.3247,85.6472 71.5,81.5 Z M 236.5,82.5 C 239.167,82.5 241.833,82.5 244.5,82.5C 244.217,83.2891 243.717,83.9558 243,84.5C 241.667,83.1667 240.333,83.1667 239,84.5C 238.005,83.9341 237.172,83.2674 236.5,82.5 Z M 248.5,82.5 C 249.167,82.5 249.833,82.5 250.5,82.5C 249.833,85.1667 249.167,85.1667 248.5,82.5 Z M 272.5,84.5 C 270.545,85.9302 268.879,85.5969 267.5,83.5C 269.518,82.0674 271.185,82.4008 272.5,84.5 Z M 275.5,82.5 C 274.71,83.4013 273.71,84.0679 272.5,84.5C 272.821,82.9519 273.821,82.2852 275.5,82.5 Z M 385.5,130.5 C 368.267,115.164 351.267,99.3304 334.5,83C 367.498,82.5 400.498,82.3334 433.5,82.5C 433.82,115.655 433.986,148.322 434,180.5C 417.212,164.216 401.045,147.549 385.5,130.5 Z M 322.5,98.5 C 325.001,98.5109 325.168,99.1776 323,100.5C 322.536,99.9056 322.369,99.2389 322.5,98.5 Z M 231.5,134.5 C 231.639,132.663 232.306,132.33 233.5,133.5C 233.043,134.298 232.376,134.631 231.5,134.5 Z M 267.5,215.5 C 239.598,203.047 211.598,190.881 183.5,179C 207.888,165.387 232.388,151.887 257,138.5C 287.184,153.254 317.35,168.42 347.5,184C 320.802,195.105 294.468,205.939 268.5,216.5C 267.893,216.376 267.56,216.043 267.5,215.5 Z M 197.5,151.5 C 196.448,151.649 195.448,151.483 194.5,151C 194.381,149.719 194.881,148.552 196,147.5C 197.188,148.563 197.688,149.897 197.5,151.5 Z M 188.5,186.5 C 186.897,186.688 185.563,186.188 184.5,185C 186.14,184.652 187.473,185.152 188.5,186.5 Z M 195.5,205.5 C 199.58,207.145 203.747,209.478 208,212.5C 209.333,212.5 210.667,212.5 212,212.5C 212.359,215.544 213.026,215.878 214,213.5C 215.876,214.609 217.709,215.609 219.5,216.5C 221.553,216.402 223.22,217.069 224.5,218.5C 223.127,218.343 221.793,218.51 220.5,219C 222.78,219.703 224.78,220.869 226.5,222.5C 227.562,221.575 227.562,220.575 226.5,219.5C 229.241,219.707 231.574,220.707 233.5,222.5C 231.663,222.639 231.33,223.306 232.5,224.5C 236.043,227.272 240.043,228.939 244.5,229.5C 241.5,227.5 238.5,225.5 235.5,223.5C 242.846,225.673 249.846,228.673 256.5,232.5C 254.693,233.395 253.36,234.728 252.5,236.5C 252.833,237.167 253.167,237.833 253.5,238.5C 254.251,237.624 254.751,236.624 255,235.5C 255.167,237.5 255.333,239.5 255.5,241.5C 254.671,261.98 254.338,281.646 254.5,300.5C 255.494,313.7 255.994,326.7 256,339.5C 255.097,338.299 253.931,337.465 252.5,337C 253.885,335.035 253.718,333.202 252,331.5C 251.781,332.938 251.281,334.271 250.5,335.5C 224.381,321.358 198.215,307.358 172,293.5C 170.821,266.479 169.987,239.812 169.5,213.5C 168.609,206.444 167.775,199.444 167,192.5C 176.5,198.091 186,202.424 195.5,205.5 Z M 354.5,192.5 C 354.767,207.429 355.434,222.596 356.5,238C 356.043,238.414 355.709,238.914 355.5,239.5C 356.703,259.438 358.703,279.272 361.5,299C 332.464,310.183 304.131,323.016 276.5,337.5C 275.378,335.956 275.711,334.623 277.5,333.5C 275.981,330.852 274.981,328.018 274.5,325C 274.821,298.385 273.654,271.552 271,244.5C 270.13,243.892 269.63,243.059 269.5,242C 270.458,238.837 270.625,235.67 270,232.5C 297.865,218.702 326.032,205.369 354.5,192.5 Z M 77.5,208.5 C 78.6878,210.496 78.0211,211.329 75.5,211C 76.3805,210.292 77.0472,209.458 77.5,208.5 Z M 65.5,213.5 C 66.6632,237.33 66.8298,261.33 66,285.5C 53.9313,273.599 42.098,261.599 30.5,249.5C 42.1057,237.559 53.7723,225.559 65.5,213.5 Z M 444.5,283.5 C 444.728,279.61 444.394,275.776 443.5,272C 444.313,254.531 444.813,237.031 445,219.5C 455.503,229.669 465.669,240.169 475.5,251C 465.3,262.032 454.967,272.865 444.5,283.5 Z M 74.5,220.5 C 77.1667,221.167 77.1667,221.833 74.5,222.5C 74.5,221.833 74.5,221.167 74.5,220.5 Z M 424.5,279.5 C 425.077,278.227 425.743,278.227 426.5,279.5C 426.03,280.463 425.363,280.463 424.5,279.5 Z M 83.5,281.5 C 84.2389,281.369 84.9056,281.536 85.5,282C 84.1228,289.342 83.4561,289.176 83.5,281.5 Z M 80.5,289.5 C 82.8484,290.775 82.6818,292.108 80,293.5C 79.5,293.333 79,293.167 78.5,293C 79.8228,292.184 80.4894,291.017 80.5,289.5 Z M 428.5,297.5 C 429.077,296.227 429.743,296.227 430.5,297.5C 430.03,298.463 429.363,298.463 428.5,297.5 Z M 77.5,305.5 C 75.9719,305.483 75.4719,304.816 76,303.5C 76.7172,304.044 77.2172,304.711 77.5,305.5 Z M 86.5,307.5 C 86.4592,303.757 87.1259,303.59 88.5,307C 87.9056,307.464 87.2389,307.631 86.5,307.5 Z M 337.5,426.5 C 336.766,425.292 336.433,423.959 336.5,422.5C 370.547,389.657 403.713,356.324 436,322.5C 436.228,357.885 436.895,393.218 438,428.5C 430.25,427.505 422.417,426.838 414.5,426.5C 388.03,427.69 362.363,427.69 337.5,426.5 Z M 75.5,328.5 C 109.351,360.852 143.018,393.352 176.5,426C 143.502,426.5 110.502,426.667 77.5,426.5C 76.2606,418.878 76.2606,411.711 77.5,405C 76.8333,402 76.1667,399 75.5,396C 76.3343,373.175 76.3343,350.675 75.5,328.5 Z M 103.5,334.5 C 104.077,333.227 104.743,333.227 105.5,334.5C 105.03,335.463 104.363,335.463 103.5,334.5 Z M 298.5,434.5 C 300.602,434.57 302.602,435.07 304.5,436C 294,447.833 282.833,459 271,469.5C 265.283,476.216 259.95,483.216 255,490.5C 238.724,472.269 222.224,454.269 205.5,436.5C 235.919,436.721 266.919,436.054 298.5,434.5 Z M 430.5,438.5 C 424.271,448.236 417.438,457.569 410,466.5C 407.878,465.78 407.378,464.613 408.5,463C 405.568,460.855 403.068,461.355 401,464.5C 400.574,459.348 398.74,454.848 395.5,451C 407.24,446.921 418.907,442.754 430.5,438.5 Z M 385.5,473.5 C 383.783,476.619 381.283,478.953 378,480.5C 377.5,480 377,479.5 376.5,479C 379.222,476.642 382.222,474.809 385.5,473.5 Z"/></g>
    <g><path style="opacity:0.502" fill="#b9d8f9" d="M 301.5,71.5 C 302.5,71.5 303.5,71.5 304.5,71.5C 305.962,72.4577 307.295,73.6244 308.5,75C 303.845,75.4992 299.179,75.6658 294.5,75.5C 295.609,74.71 296.942,74.21 298.5,74C 299.071,72.7949 299.738,71.6283 300.5,70.5C 301.107,70.6236 301.44,70.9569 301.5,71.5 Z"/></g>
    <g><path style="opacity:0.541" fill="#5b6b7b" d="M 307.5,82.5 C 305.833,82.5 304.167,82.5 302.5,82.5C 302.791,81.3509 303.624,80.6842 305,80.5C 306.376,80.6842 307.209,81.3509 307.5,82.5 Z"/></g>
    <g><path style="opacity:0.941" fill="#46525f" d="M 314.5,81.5 C 312.482,82.9326 310.815,82.5992 309.5,80.5C 308.255,80.0307 308.421,79.6974 310,79.5C 311.728,79.899 313.228,80.5657 314.5,81.5 Z"/></g>
    <g><path style="opacity:0.957" fill="#b8d8f9" d="M 309.5,80.5 C 310.815,82.5992 312.482,82.9326 314.5,81.5C 322.183,89.0173 329.35,97.0173 336,105.5C 350.781,118.444 364.281,132.444 376.5,147.5C 377.325,148.386 378.325,148.719 379.5,148.5C 388.982,161.824 400.149,173.824 413,184.5C 420.164,192.824 427.331,201.158 434.5,209.5C 433.167,209.833 433.167,210.167 434.5,210.5C 434.5,210.833 434.5,211.167 434.5,211.5C 433.167,211.833 433.167,212.167 434.5,212.5C 435.483,222.433 435.816,232.433 435.5,242.5C 434.167,242.833 434.167,243.167 435.5,243.5C 435.5,248.5 435.5,253.5 435.5,258.5C 434.167,258.833 434.167,259.167 435.5,259.5C 435.5,262.167 435.5,264.833 435.5,267.5C 434.167,267.833 434.167,268.167 435.5,268.5C 435.5,268.833 435.5,269.167 435.5,269.5C 434.167,269.833 434.167,270.167 435.5,270.5C 435.186,278.087 435.519,285.587 436.5,293C 429.689,300.978 422.356,308.478 414.5,315.5C 401.586,330.42 388.253,345.087 374.5,359.5C 373.271,360.281 371.938,360.781 370.5,361C 370.728,361.399 371.062,361.565 371.5,361.5C 366.087,367.94 360.42,374.273 354.5,380.5C 354.631,379.761 354.464,379.094 354,378.5C 352.938,381.341 351.604,384.008 350,386.5C 348.933,387.191 347.766,387.691 346.5,388C 346.728,388.399 347.062,388.565 347.5,388.5C 335.976,400.856 324.642,413.356 313.5,426C 309.223,426.955 304.889,427.455 300.5,427.5C 285.919,427.557 271.585,427.223 257.5,426.5C 257.565,426.062 257.399,425.728 257,425.5C 256.481,426.516 255.647,427.182 254.5,427.5C 248.791,426.681 242.624,426.681 236,427.5C 222.511,426.772 209.011,426.272 195.5,426C 163.719,392.271 132.053,358.438 100.5,324.5C 97.9413,320.539 94.608,316.539 90.5,312.5C 91.5573,311.794 91.2239,311.461 89.5,311.5C 88.147,310.474 87.147,309.141 86.5,307.5C 82.2111,305.046 78.7111,301.712 76,297.5C 75.5001,283.837 75.3334,270.171 75.5,256.5C 76.8333,255.833 76.8333,255.167 75.5,254.5C 75.7761,246.848 75.4427,239.181 74.5,231.5C 75.8333,230.833 75.8333,230.167 74.5,229.5C 74.5,227.833 74.5,226.167 74.5,224.5C 75.8333,224.167 75.8333,223.833 74.5,223.5C 74.5,223.167 74.5,222.833 74.5,222.5C 77.1667,221.833 77.1667,221.167 74.5,220.5C 74.5,215.833 74.5,211.167 74.5,206.5C 75.8333,206.167 75.8333,205.833 74.5,205.5C 115.275,164.723 156.275,124.39 197.5,84.5C 198.42,85.0674 198.754,84.4008 198.5,82.5C 202.5,82.5 206.5,82.5 210.5,82.5C 210.833,83.8333 211.167,83.8333 211.5,82.5C 212.167,82.5 212.833,82.5 213.5,82.5C 213.833,83.8333 214.167,83.8333 214.5,82.5C 217.833,82.5 221.167,82.5 224.5,82.5C 224.833,83.8333 225.167,83.8333 225.5,82.5C 226.833,82.5 228.167,82.5 229.5,82.5C 230.167,83.8333 230.833,83.8333 231.5,82.5C 233.167,82.5 234.833,82.5 236.5,82.5C 237.172,83.2674 238.005,83.9341 239,84.5C 240.333,83.1667 241.667,83.1667 243,84.5C 243.717,83.9558 244.217,83.2891 244.5,82.5C 245.833,82.5 247.167,82.5 248.5,82.5C 249.167,85.1667 249.833,85.1667 250.5,82.5C 253.833,82.5 257.167,82.5 260.5,82.5C 260.833,83.8333 261.167,83.8333 261.5,82.5C 263.167,82.5 264.833,82.5 266.5,82.5C 266.5,83.1667 266.833,83.5 267.5,83.5C 268.879,85.5969 270.545,85.9302 272.5,84.5C 273.71,84.0679 274.71,83.4013 275.5,82.5C 284.5,82.5 293.5,82.5 302.5,82.5C 304.167,82.5 305.833,82.5 307.5,82.5C 308.5,82.1667 309.167,81.5 309.5,80.5 Z M 236.5,82.5 C 239.167,82.5 241.833,82.5 244.5,82.5C 244.217,83.2891 243.717,83.9558 243,84.5C 241.667,83.1667 240.333,83.1667 239,84.5C 238.005,83.9341 237.172,83.2674 236.5,82.5 Z M 248.5,82.5 C 249.167,82.5 249.833,82.5 250.5,82.5C 249.833,85.1667 249.167,85.1667 248.5,82.5 Z M 272.5,84.5 C 270.545,85.9302 268.879,85.5969 267.5,83.5C 269.518,82.0674 271.185,82.4008 272.5,84.5 Z M 275.5,82.5 C 274.71,83.4013 273.71,84.0679 272.5,84.5C 272.821,82.9519 273.821,82.2852 275.5,82.5 Z M 322.5,98.5 C 322.369,99.2389 322.536,99.9056 323,100.5C 325.168,99.1776 325.001,98.5109 322.5,98.5 Z M 231.5,134.5 C 232.376,134.631 233.043,134.298 233.5,133.5C 232.306,132.33 231.639,132.663 231.5,134.5 Z M 267.5,215.5 C 267.56,216.043 267.893,216.376 268.5,216.5C 294.468,205.939 320.802,195.105 347.5,184C 317.35,168.42 287.184,153.254 257,138.5C 232.388,151.887 207.888,165.387 183.5,179C 211.598,190.881 239.598,203.047 267.5,215.5 Z M 197.5,151.5 C 197.688,149.897 197.188,148.563 196,147.5C 194.881,148.552 194.381,149.719 194.5,151C 195.448,151.483 196.448,151.649 197.5,151.5 Z M 188.5,186.5 C 187.473,185.152 186.14,184.652 184.5,185C 185.563,186.188 186.897,186.688 188.5,186.5 Z M 195.5,205.5 C 199.58,207.145 203.747,209.478 208,212.5C 209.333,212.5 210.667,212.5 212,212.5C 212.359,215.544 213.026,215.878 214,213.5C 215.876,214.609 217.709,215.609 219.5,216.5C 221.553,216.402 223.22,217.069 224.5,218.5C 223.127,218.343 221.793,218.51 220.5,219C 222.78,219.703 224.78,220.869 226.5,222.5C 227.562,221.575 227.562,220.575 226.5,219.5C 229.241,219.707 231.574,220.707 233.5,222.5C 231.663,222.639 231.33,223.306 232.5,224.5C 236.043,227.272 240.043,228.939 244.5,229.5C 241.5,227.5 238.5,225.5 235.5,223.5C 242.846,225.673 249.846,228.673 256.5,232.5C 254.693,233.395 253.36,234.728 252.5,236.5C 252.833,237.167 253.167,237.833 253.5,238.5C 254.251,237.624 254.751,236.624 255,235.5C 255.167,237.5 255.333,239.5 255.5,241.5C 254.671,261.98 254.338,281.646 254.5,300.5C 255.494,313.7 255.994,326.7 256,339.5C 255.097,338.299 253.931,337.465 252.5,337C 253.885,335.035 253.718,333.202 252,331.5C 251.781,332.938 251.281,334.271 250.5,335.5C 224.381,321.358 198.215,307.358 172,293.5C 170.821,266.479 169.987,239.812 169.5,213.5C 168.609,206.444 167.775,199.444 167,192.5C 176.5,198.091 186,202.424 195.5,205.5 Z M 354.5,192.5 C 326.032,205.369 297.865,218.702 270,232.5C 270.625,235.67 270.458,238.837 269.5,242C 269.63,243.059 270.13,243.892 271,244.5C 273.654,271.552 274.821,298.385 274.5,325C 274.981,328.018 275.981,330.852 277.5,333.5C 275.711,334.623 275.378,335.956 276.5,337.5C 304.131,323.016 332.464,310.183 361.5,299C 358.703,279.272 356.703,259.438 355.5,239.5C 355.709,238.914 356.043,238.414 356.5,238C 355.434,222.596 354.767,207.429 354.5,192.5 Z M 77.5,208.5 C 77.0472,209.458 76.3805,210.292 75.5,211C 78.0211,211.329 78.6878,210.496 77.5,208.5 Z M 424.5,279.5 C 425.363,280.463 426.03,280.463 426.5,279.5C 425.743,278.227 425.077,278.227 424.5,279.5 Z M 83.5,281.5 C 83.4561,289.176 84.1228,289.342 85.5,282C 84.9056,281.536 84.2389,281.369 83.5,281.5 Z M 80.5,289.5 C 80.4894,291.017 79.8228,292.184 78.5,293C 79,293.167 79.5,293.333 80,293.5C 82.6818,292.108 82.8484,290.775 80.5,289.5 Z M 428.5,297.5 C 429.363,298.463 430.03,298.463 430.5,297.5C 429.743,296.227 429.077,296.227 428.5,297.5 Z M 86.5,307.5 C 87.2389,307.631 87.9056,307.464 88.5,307C 87.1259,303.59 86.4592,303.757 86.5,307.5 Z"/></g>
    <g><path style="opacity:0.083" fill="#000000" d="M 377.5,120.5 C 379.337,120.639 379.67,121.306 378.5,122.5C 377.702,122.043 377.369,121.376 377.5,120.5 Z"/></g>
    <g><path style="opacity:0.161" fill="#000000" d="M 380.5,125.5 C 381.077,124.227 381.743,124.227 382.5,125.5C 382.03,126.463 381.363,126.463 380.5,125.5 Z"/></g>
    <g><path style="opacity:0.071" fill="#000000" d="M 385.5,130.5 C 384.27,127.565 384.937,127.065 387.5,129C 386.956,129.717 386.289,130.217 385.5,130.5 Z"/></g>
    <g><path style="opacity:0.975" fill="#000101" d="M 252.5,129.5 C 259.445,129.646 266.112,131.146 272.5,134C 283.521,138.513 294.521,143.013 305.5,147.5C 327.326,157.726 349.159,168.06 371,178.5C 374.738,197.38 376.238,216.547 375.5,236C 376.246,258.801 376.913,281.468 377.5,304C 362.865,312.319 348.199,320.653 333.5,329C 310.333,339.75 287.666,351.25 265.5,363.5C 265.5,362.5 265.5,361.5 265.5,360.5C 263.409,360.318 261.409,360.652 259.5,361.5C 256.705,358.949 253.372,357.283 249.5,356.5C 243.357,353.263 237.024,350.263 230.5,347.5C 230.158,346.662 229.492,346.328 228.5,346.5C 223.505,343.842 218.505,341.175 213.5,338.5C 207.074,335.041 200.407,331.875 193.5,329C 191.334,326.419 188.667,324.585 185.5,323.5C 178.506,319.336 171.173,315.67 163.5,312.5C 162.833,312.833 162.167,313.167 161.5,313.5C 158.816,310.497 156.149,307.497 153.5,304.5C 153.175,273.867 153.175,243.033 153.5,212C 152.761,207.012 152.094,202.012 151.5,197C 151.575,189.919 151.742,182.752 152,175.5C 152.785,173.714 153.951,172.214 155.5,171C 170.283,165.769 184.283,159.269 197.5,151.5C 215.76,143.752 234.094,136.419 252.5,129.5 Z M 267.5,215.5 C 267.56,216.043 267.893,216.376 268.5,216.5C 294.468,205.939 320.802,195.105 347.5,184C 317.35,168.42 287.184,153.254 257,138.5C 232.388,151.887 207.888,165.387 183.5,179C 211.598,190.881 239.598,203.047 267.5,215.5 Z M 188.5,186.5 C 187.473,185.152 186.14,184.652 184.5,185C 185.563,186.188 186.897,186.688 188.5,186.5 Z M 195.5,205.5 C 199.58,207.145 203.747,209.478 208,212.5C 209.333,212.5 210.667,212.5 212,212.5C 212.359,215.544 213.026,215.878 214,213.5C 215.876,214.609 217.709,215.609 219.5,216.5C 221.553,216.402 223.22,217.069 224.5,218.5C 223.127,218.343 221.793,218.51 220.5,219C 222.78,219.703 224.78,220.869 226.5,222.5C 227.562,221.575 227.562,220.575 226.5,219.5C 229.241,219.707 231.574,220.707 233.5,222.5C 231.663,222.639 231.33,223.306 232.5,224.5C 236.043,227.272 240.043,228.939 244.5,229.5C 241.5,227.5 238.5,225.5 235.5,223.5C 242.846,225.673 249.846,228.673 256.5,232.5C 254.693,233.395 253.36,234.728 252.5,236.5C 252.833,237.167 253.167,237.833 253.5,238.5C 254.251,237.624 254.751,236.624 255,235.5C 255.167,237.5 255.333,239.5 255.5,241.5C 254.671,261.98 254.338,281.646 254.5,300.5C 255.494,313.7 255.994,326.7 256,339.5C 255.097,338.299 253.931,337.465 252.5,337C 253.885,335.035 253.718,333.202 252,331.5C 251.781,332.938 251.281,334.271 250.5,335.5C 224.381,321.358 198.215,307.358 172,293.5C 170.821,266.479 169.987,239.812 169.5,213.5C 168.609,206.444 167.775,199.444 167,192.5C 176.5,198.091 186,202.424 195.5,205.5 Z M 354.5,192.5 C 326.032,205.369 297.865,218.702 270,232.5C 270.625,235.67 270.458,238.837 269.5,242C 269.63,243.059 270.13,243.892 271,244.5C 273.654,271.552 274.821,298.385 274.5,325C 274.981,328.018 275.981,330.852 277.5,333.5C 275.711,334.623 275.378,335.956 276.5,337.5C 304.131,323.016 332.464,310.183 361.5,299C 358.703,279.272 356.703,259.438 355.5,239.5C 355.709,238.914 356.043,238.414 356.5,238C 355.434,222.596 354.767,207.429 354.5,192.5 Z"/></g>
    <g><path style="opacity:0.098" fill="#000000" d="M 413.5,155.5 C 416.001,155.511 416.168,156.178 414,157.5C 413.536,156.906 413.369,156.239 413.5,155.5 Z"/></g>
    <g><path style="opacity:0.119" fill="#000000" d="M 431.5,173.5 C 429.663,173.361 429.33,172.694 430.5,171.5C 431.298,171.957 431.631,172.624 431.5,173.5 Z"/></g>
    <g><path style="opacity:0.179" fill="#000000" d="M 447.5,188.5 C 450.5,189.5 452.5,191.5 453.5,194.5C 450.95,192.923 448.95,190.923 447.5,188.5 Z"/></g>
    <g><path style="opacity:0.164" fill="#000000" d="M 453.5,194.5 C 455.833,194.833 457.167,196.167 457.5,198.5C 455.659,197.598 454.326,196.264 453.5,194.5 Z"/></g>
    <g><path style="opacity:0.165" fill="#000000" d="M 457.5,198.5 C 459.337,198.639 459.67,199.306 458.5,200.5C 457.702,200.043 457.369,199.376 457.5,198.5 Z"/></g>
    <g><path style="opacity:0.127" fill="#000000" d="M 461.5,201.5 C 462.289,201.783 462.956,202.283 463.5,203C 462.184,203.528 461.517,203.028 461.5,201.5 Z"/></g>
    <g><path style="opacity:0.063" fill="#000000" d="M 464.5,204.5 C 465.833,205.167 465.833,205.167 464.5,204.5 Z"/></g>
    <g><path style="opacity:0.129" fill="#000000" d="M 465.5,207.5 C 465.897,206.475 466.563,206.308 467.5,207C 466.906,207.464 466.239,207.631 465.5,207.5 Z"/></g>
    <g><path style="opacity:0.246" fill="#000000" d="M 470.5,210.5 C 468.663,210.361 468.33,209.694 469.5,208.5C 470.298,208.957 470.631,209.624 470.5,210.5 Z"/></g>
    <g><path style="opacity:0.132" fill="#000000" d="M 470.5,210.5 C 472.5,210.5 473.5,211.5 473.5,213.5C 473.5,211.5 472.5,210.5 470.5,210.5 Z"/></g>
    <g><path style="opacity:0.063" fill="#000000" d="M 473.5,213.5 C 474.239,213.369 474.906,213.536 475.5,214C 474.563,214.692 473.897,214.525 473.5,213.5 Z"/></g>
    <g><path style="opacity:0.241" fill="#000000" d="M 478.5,217.5 C 480.728,218.322 481.395,219.655 480.5,221.5C 479.295,220.423 478.628,219.09 478.5,217.5 Z"/></g>
    <g><path style="opacity:0.242" fill="#000000" d="M 224.5,218.5 C 224.842,219.338 225.508,219.672 226.5,219.5C 227.562,220.575 227.562,221.575 226.5,222.5C 224.78,220.869 222.78,219.703 220.5,219C 221.793,218.51 223.127,218.343 224.5,218.5 Z"/></g>
    <g><path style="opacity:0.233" fill="#000000" d="M 233.5,222.5 C 233.842,223.338 234.508,223.672 235.5,223.5C 238.5,225.5 241.5,227.5 244.5,229.5C 240.043,228.939 236.043,227.272 232.5,224.5C 231.33,223.306 231.663,222.639 233.5,222.5 Z"/></g>
    <g><path style="opacity:0.134" fill="#000000" d="M 244.5,229.5 C 246.842,229.504 248.842,230.337 250.5,232C 248.021,232.362 246.021,231.529 244.5,229.5 Z"/></g>
    <g><path style="opacity:0.11" fill="#000000" d="M 489.5,229.5 C 491.337,229.639 491.67,230.306 490.5,231.5C 489.702,231.043 489.369,230.376 489.5,229.5 Z"/></g>
    <g><path style="opacity:0.072" fill="#000000" d="M 493.5,234.5 C 492.711,234.217 492.044,233.717 491.5,233C 492.816,232.472 493.483,232.972 493.5,234.5 Z"/></g>
    <g><path style="opacity:0.031" fill="#000000" d="M 493.5,234.5 C 495.337,234.639 495.67,235.306 494.5,236.5C 493.702,236.043 493.369,235.376 493.5,234.5 Z"/></g>
    <g><path style="opacity:0.076" fill="#000000" d="M 497.5,239.5 C 497.897,238.475 498.563,238.308 499.5,239C 498.906,239.464 498.239,239.631 497.5,239.5 Z"/></g>
    <g><path style="opacity:0.142" fill="#000000" d="M 250.5,264.5 C 252.337,264.639 252.67,265.306 251.5,266.5C 250.702,266.043 250.369,265.376 250.5,264.5 Z"/></g>
    <g><path style="opacity:0.07" fill="#000000" d="M 250.5,269.5 C 252.337,269.639 252.67,270.306 251.5,271.5C 250.702,271.043 250.369,270.376 250.5,269.5 Z"/></g>
    <g><path style="opacity:0.214" fill="#000000" d="M 250.5,272.5 C 252.337,272.639 252.67,273.306 251.5,274.5C 250.702,274.043 250.369,273.376 250.5,272.5 Z"/></g>
    <g><path style="opacity:0.146" fill="#000000" d="M 250.5,280.5 C 252.337,280.639 252.67,281.306 251.5,282.5C 250.702,282.043 250.369,281.376 250.5,280.5 Z"/></g>
    <g><path style="opacity:0.082" fill="#000000" d="M 250.5,292.5 C 251.693,292.97 252.36,293.97 252.5,295.5C 252.167,296.5 251.833,297.5 251.5,298.5C 251.537,296.678 251.204,294.678 250.5,292.5 Z"/></g>
    <g><path style="opacity:0.09" fill="#000000" d="M 251.5,299.5 C 252.773,300.077 252.773,300.743 251.5,301.5C 250.537,301.03 250.537,300.363 251.5,299.5 Z"/></g>
    <g><path style="opacity:0.081" fill="#000000" d="M 250.5,303.5 C 251.077,302.227 251.743,302.227 252.5,303.5C 252.03,304.463 251.363,304.463 250.5,303.5 Z"/></g>
    <g><path style="opacity:0.173" fill="#c8d7fc" d="M 77.5,306.5 C 77.5,306.167 77.5,305.833 77.5,305.5C 78.8333,305.5 79.5,306.167 79.5,307.5C 79.1667,307.5 78.8333,307.5 78.5,307.5C 78.5,306.833 78.1667,306.5 77.5,306.5 Z"/></g>
    <g><path style="opacity:0.187" fill="#000000" d="M 251.5,305.5 C 252.776,306.386 252.776,307.386 251.5,308.5C 250.438,307.575 250.438,306.575 251.5,305.5 Z"/></g>
    <g><path style="opacity:0.125" fill="#000000" d="M 251.5,309.5 C 252.773,310.077 252.773,310.743 251.5,311.5C 250.537,311.03 250.537,310.363 251.5,309.5 Z"/></g>
    <g><path style="opacity:0.749" fill="#b9d9f9" d="M 84.5,313.5 C 85.8333,313.5 86.5,314.167 86.5,315.5C 85.5,315.167 84.8333,314.5 84.5,313.5 Z"/></g>
    <g><path style="opacity:0.442" fill="#adcbea" d="M 86.5,315.5 C 88.6859,315.511 89.5192,316.511 89,318.5C 87.955,317.627 87.1217,316.627 86.5,315.5 Z"/></g>
    <g><path style="opacity:0.187" fill="#000000" d="M 251.5,320.5 C 252.773,321.077 252.773,321.743 251.5,322.5C 250.537,322.03 250.537,321.363 251.5,320.5 Z"/></g>
    <g><path style="opacity:0.141" fill="#000000" d="M 251.5,325.5 C 253.337,325.639 253.67,326.306 252.5,327.5C 251.702,327.043 251.369,326.376 251.5,325.5 Z"/></g>
    <g><path style="opacity:0.412" fill="#adc8e8" d="M 336.5,422.5 C 336.433,423.959 336.766,425.292 337.5,426.5C 332.561,426.368 332.228,425.035 336.5,422.5 Z"/></g>
</svg>
